<svg xmlns="http://www.w3.org/2000/svg" xmlns:xlink="http://www.w3.org/1999/xlink" version="1.1" x="0px" y="0px" viewBox="0 0 100 100" enable-background="new 0 0 100 100" xml:space="preserve"><path d="M66.788,69.636c-0.358,0-0.72-0.109-1.031-0.337c-2.43-1.774-5.634-3.112-7.755-3.998c-1.234-0.516-1.898-0.798-2.341-1.083  c-1.117-0.722-1.484-1.633-1.597-2.271c-0.242-1.382,0.516-2.462,0.67-2.664c0.07-0.093,0.149-0.178,0.237-0.255  c3.905-3.429,5.297-8.398,5.297-11.906c0-5.236-3.213-10.871-10.269-10.871s-10.27,5.635-10.27,10.871  c0,3.507,1.392,8.478,5.297,11.906c0.087,0.077,0.167,0.162,0.237,0.255c0.154,0.202,0.912,1.282,0.67,2.664  c-0.111,0.639-0.479,1.55-1.597,2.271c-0.442,0.285-1.106,0.567-2.34,1.083c-2.09,0.873-5.248,2.191-7.667,3.935  c-0.784,0.562-1.878,0.388-2.443-0.397c-0.565-0.784-0.387-1.878,0.397-2.442c2.746-1.978,6.126-3.39,8.363-4.324  c0.662-0.276,1.402-0.586,1.703-0.744c-5.672-5.251-6.121-12.175-6.121-14.206c0-7.142,4.729-14.371,13.77-14.371  c9.039,0,13.769,7.229,13.769,14.371c0,2.031-0.449,8.956-6.121,14.206c0.302,0.158,1.042,0.467,1.703,0.743  c2.272,0.949,5.707,2.384,8.471,4.402c0.78,0.57,0.951,1.665,0.381,2.445C67.859,69.387,67.327,69.636,66.788,69.636z   M57.451,61.192L57.451,61.192L57.451,61.192z M42.548,61.192L42.548,61.192L42.548,61.192z M50,82.75  c-18.059,0-32.75-14.691-32.75-32.75S31.941,17.25,50,17.25S82.75,31.941,82.75,50S68.059,82.75,50,82.75z M50,20.75  c-16.128,0-29.25,13.122-29.25,29.25c0,16.129,13.122,29.25,29.25,29.25c16.129,0,29.25-13.121,29.25-29.25  C79.25,33.872,66.129,20.75,50,20.75z"></path></svg>