<svg xmlns="http://www.w3.org/2000/svg" xmlns:xlink="http://www.w3.org/1999/xlink" version="1.1" x="0px" y="0px" viewBox="0 0 100 100" enable-background="new 0 0 100 100" xml:space="preserve"><path d="M49.995,76.75c-8.681,0-17.013-3.195-23.461-8.997c-0.56-0.503-0.734-1.309-0.435-1.999l0.282-0.648  c1.662-5.352,9.428-8.592,13.613-10.338c0.806-0.336,1.719-0.717,1.944-0.862c0.02-0.013,0.037-0.024,0.052-0.036  c-6.184-5.621-6.67-13.113-6.67-15.299c0-7.613,5.041-15.32,14.675-15.32s14.674,7.707,14.674,15.32  c0,2.186-0.486,9.679-6.67,15.299c0.017,0.013,0.036,0.026,0.059,0.041c0.218,0.141,1.131,0.521,1.937,0.857  c4.181,1.744,11.936,4.979,13.608,10.321l0.285,0.624c0.317,0.694,0.147,1.516-0.42,2.027C67.024,73.55,58.688,76.75,49.995,76.75z   M29.791,65.944c5.667,4.72,12.794,7.306,20.204,7.306c7.416,0,14.542-2.586,20.203-7.306c-1.353-3.691-8.214-6.555-11.551-7.946  c-1.209-0.505-2.007-0.838-2.493-1.151c-1.165-0.76-1.544-1.705-1.657-2.366c-0.246-1.432,0.539-2.549,0.699-2.758  c0.07-0.092,0.149-0.177,0.236-0.253c4.23-3.714,5.737-9.099,5.737-12.9c0-5.693-3.497-11.82-11.174-11.82  c-7.678,0-11.175,6.127-11.175,11.82c0,3.801,1.507,9.186,5.738,12.9c0.086,0.076,0.166,0.161,0.235,0.253  c0.16,0.209,0.946,1.326,0.7,2.758c-0.113,0.661-0.492,1.606-1.65,2.361c-0.494,0.318-1.292,0.652-2.5,1.156  C38.005,59.39,31.144,62.253,29.791,65.944z M57.908,53.789L57.908,53.789L57.908,53.789z"></path></svg>