<svg xmlns="http://www.w3.org/2000/svg" xmlns:xlink="http://www.w3.org/1999/xlink" version="1.1" x="0px" y="0px" viewBox="0 0 100 100" enable-background="new 0 0 100 100" xml:space="preserve"><path d="M50,83.25c-4.752,0-8.618-3.865-8.618-8.617c0-0.967,0.784-1.75,1.75-1.75s1.75,0.783,1.75,1.75  c0,2.821,2.296,5.117,5.118,5.117s5.118-2.296,5.118-5.117c0-0.967,0.783-1.75,1.75-1.75s1.75,0.783,1.75,1.75  C58.617,79.385,54.751,83.25,50,83.25z M78.126,66.451v-4.748c0-3.321-2.823-5.624-4.885-7.306  c-0.647-0.527-1.313-1.071-1.642-1.454c-0.255-1.231-0.371-6.415-0.333-10.758c0-9.35-6.069-17.52-14.91-20.292  C55.731,18.958,53.119,16.75,50,16.75s-5.732,2.209-6.357,5.145c-3.258,1.026-6.233,2.833-8.665,5.269  c-4.028,4.028-6.246,9.363-6.246,15.037c0.038,4.328-0.078,9.511-0.332,10.742c-0.329,0.383-0.994,0.926-1.641,1.453  c-2.062,1.683-4.885,3.985-4.885,7.307v4.748c0,0.967,0.784,1.75,1.75,1.75h52.752C77.343,68.201,78.126,67.418,78.126,66.451z   M25.374,61.703c0-1.659,1.995-3.287,3.598-4.594c1.007-0.822,1.877-1.532,2.425-2.328c0.303-0.442,0.935-1.361,0.835-12.596  c0-4.724,1.854-9.18,5.222-12.548c2.185-2.189,4.891-3.768,7.85-4.584c0.447-0.015,0.859-0.209,1.166-0.514  c0.414-0.378,0.635-0.947,0.552-1.536c-0.002-0.016-0.004-0.031-0.007-0.046C47.161,21.44,48.444,20.25,50,20.25  c1.554,0,2.835,1.188,2.984,2.711c-0.002,0.015-0.005,0.031-0.007,0.046c-0.074,0.536,0.103,1.053,0.446,1.426  c0.314,0.368,0.771,0.604,1.273,0.62c7.718,2.124,13.07,9.107,13.07,17.116c-0.1,11.251,0.533,12.171,0.837,12.612  c0.547,0.795,1.417,1.505,2.426,2.327c1.603,1.308,3.597,2.935,3.597,4.594v2.998H25.374V61.703z"></path></svg>