<svg xmlns="http://www.w3.org/2000/svg" xmlns:xlink="http://www.w3.org/1999/xlink" version="1.1" x="0px" y="0px" viewBox="0 0 100 100" enable-background="new 0 0 100 100" xml:space="preserve"><path d="M34.403,52.613c0,0.798-0.627,1.451-1.395,1.451h-2.665c-0.768,0-1.397-0.652-1.397-1.451v-2.556  c0-0.798,0.628-1.451,1.397-1.451h2.665c0.768,0,1.395,0.652,1.395,1.451V52.613z M34.403,59.22c0-0.798-0.627-1.451-1.395-1.451  h-2.665c-0.768,0-1.397,0.653-1.397,1.451v2.556c0,0.798,0.628,1.451,1.397,1.451h2.665c0.768,0,1.395-0.653,1.395-1.451V59.22z   M34.403,68.381c0-0.797-0.627-1.45-1.395-1.45h-2.665c-0.768,0-1.397,0.652-1.397,1.45v2.557c0,0.798,0.628,1.451,1.397,1.451  h2.665c0.768,0,1.395-0.653,1.395-1.451V68.381z M43.566,50.057c0-0.798-0.628-1.451-1.395-1.451h-2.665  c-0.767,0-1.397,0.652-1.397,1.451v2.556c0,0.798,0.63,1.451,1.397,1.451h2.665c0.767,0,1.395-0.652,1.395-1.451V50.057z   M43.566,59.22c0-0.798-0.628-1.451-1.395-1.451h-2.665c-0.767,0-1.397,0.653-1.397,1.451v2.556c0,0.798,0.63,1.451,1.397,1.451  h2.665c0.767,0,1.395-0.653,1.395-1.451V59.22z M43.566,68.381c0-0.797-0.628-1.45-1.395-1.45h-2.665  c-0.767,0-1.397,0.652-1.397,1.45v2.557c0,0.798,0.63,1.451,1.397,1.451h2.665c0.767,0,1.395-0.653,1.395-1.451V68.381z   M52.728,50.057c0-0.798-0.628-1.451-1.397-1.451h-2.664c-0.768,0-1.397,0.652-1.397,1.451v2.556c0,0.798,0.628,1.451,1.397,1.451  h2.664c0.768,0,1.397-0.652,1.397-1.451V50.057z M52.728,59.22c0-0.798-0.628-1.451-1.397-1.451h-2.664  c-0.768,0-1.397,0.653-1.397,1.451v2.556c0,0.798,0.628,1.451,1.397,1.451h2.664c0.768,0,1.397-0.653,1.397-1.451V59.22z   M52.728,68.381c0-0.797-0.628-1.45-1.397-1.45h-2.664c-0.768,0-1.397,0.652-1.397,1.45v2.557c0,0.798,0.628,1.451,1.397,1.451  h2.664c0.768,0,1.397-0.653,1.397-1.451V68.381z M61.891,50.057c0-0.798-0.628-1.451-1.395-1.451H57.83  c-0.768,0-1.397,0.652-1.397,1.451v2.556c0,0.798,0.628,1.451,1.397,1.451h2.665c0.767,0,1.395-0.652,1.395-1.451V50.057z   M61.891,59.22c0-0.798-0.628-1.451-1.395-1.451H57.83c-0.768,0-1.397,0.653-1.397,1.451v2.556c0,0.798,0.628,1.451,1.397,1.451  h2.665c0.767,0,1.395-0.653,1.395-1.451V59.22z M61.891,68.381c0-0.797-0.628-1.45-1.395-1.45H57.83  c-0.768,0-1.397,0.652-1.397,1.45v2.557c0,0.798,0.628,1.451,1.397,1.451h2.665c0.767,0,1.395-0.653,1.395-1.451V68.381z   M71.053,50.057c0-0.798-0.628-1.451-1.397-1.451h-2.664c-0.768,0-1.397,0.652-1.397,1.451v2.556c0,0.798,0.628,1.451,1.397,1.451  h2.664c0.768,0,1.397-0.652,1.397-1.451V50.057z M71.053,59.22c0-0.798-0.628-1.451-1.397-1.451h-2.664  c-0.768,0-1.397,0.653-1.397,1.451v2.556c0,0.798,0.628,1.451,1.397,1.451h2.664c0.768,0,1.397-0.653,1.397-1.451V59.22z   M81.016,28.629v48.917c0,2.594-2.11,4.704-4.705,4.704H23.689c-2.594,0-4.705-2.11-4.705-4.704V28.629  c0-2.594,2.111-4.704,4.705-4.704h6.289V19.5c0-0.966,0.784-1.75,1.75-1.75s1.75,0.784,1.75,1.75v4.425h33.043V19.5  c0-0.966,0.783-1.75,1.75-1.75s1.75,0.784,1.75,1.75v4.425h6.289C78.905,23.925,81.016,26.035,81.016,28.629z M22.484,28.629v10.044  h55.031V28.629c0-0.652-0.552-1.204-1.205-1.204h-6.289v3.892c0,0.966-0.783,1.75-1.75,1.75s-1.75-0.784-1.75-1.75v-3.892H33.478  v3.892c0,0.966-0.784,1.75-1.75,1.75s-1.75-0.784-1.75-1.75v-3.892h-6.289C23.036,27.425,22.484,27.977,22.484,28.629z   M77.516,77.546V42.173H22.484v35.373c0,0.652,0.552,1.204,1.205,1.204h52.621C76.964,78.75,77.516,78.198,77.516,77.546z"></path></svg>