<svg xmlns="http://www.w3.org/2000/svg" xmlns:xlink="http://www.w3.org/1999/xlink" version="1.1" x="0px" y="0px" viewBox="0 0 100 100" enable-background="new 0 0 100 100" xml:space="preserve"><path d="M47.558,63.086c-0.011,0-0.021,0-0.032,0c-0.476-0.009-0.927-0.211-1.25-0.56l-14.746-15.88  c-0.658-0.708-0.617-1.816,0.091-2.473c0.708-0.658,1.816-0.617,2.473,0.091l13.511,14.55l34.658-34.659  c0.684-0.684,1.791-0.684,2.475,0c0.684,0.683,0.684,1.792,0,2.475L48.795,62.573C48.467,62.901,48.021,63.086,47.558,63.086z   M80.919,50c0-1.546-0.108-3.104-0.322-4.628c-0.135-0.958-1.031-1.63-1.977-1.49c-0.957,0.134-1.624,1.019-1.49,1.976  c0.192,1.364,0.289,2.758,0.289,4.142c0,16.313-13.271,29.585-29.584,29.585S18.25,66.313,18.25,50  c0-16.313,13.271-29.584,29.584-29.584c6.775,0,13.396,2.349,18.645,6.614c0.75,0.609,1.854,0.495,2.462-0.255  c0.609-0.75,0.495-1.852-0.255-2.462c-5.87-4.77-13.276-7.397-20.852-7.397C29.592,16.916,14.75,31.757,14.75,50  c0,18.243,14.842,33.085,33.084,33.085S80.919,68.243,80.919,50z"></path></svg>