<svg xmlns="http://www.w3.org/2000/svg" xmlns:xlink="http://www.w3.org/1999/xlink" version="1.1" x="0px" y="0px" viewBox="0 0 100 100" enable-background="new 0 0 100 100" xml:space="preserve"><path d="M72.288,76.75H27.712c-2.398,0-4.349-1.952-4.349-4.351v-44.8c0-2.398,1.951-4.35,4.349-4.35h44.576  c2.397,0,4.349,1.951,4.349,4.35v44.8C76.637,74.798,74.686,76.75,72.288,76.75z M27.712,26.75c-0.46,0-0.849,0.389-0.849,0.85v44.8  c0,0.461,0.389,0.851,0.849,0.851h44.576c0.46,0,0.849-0.39,0.849-0.851v-44.8c0-0.46-0.389-0.85-0.849-0.85H27.712z M47.422,62.107  l18.495-18.478c0.684-0.683,0.684-1.791,0.001-2.475s-1.791-0.686-2.476-0.001L46.262,58.319l-7.447-8.394  c-0.642-0.723-1.747-0.788-2.471-0.147c-0.723,0.642-0.789,1.748-0.147,2.471l8.679,9.782c0.319,0.36,0.774,0.573,1.256,0.587  c0.018,0,0.035,0.001,0.053,0.001C46.647,62.619,47.093,62.436,47.422,62.107z"></path></svg>