<svg xmlns="http://www.w3.org/2000/svg" xmlns:xlink="http://www.w3.org/1999/xlink" version="1.1" x="0px" y="0px" viewBox="0 0 100 100" enable-background="new 0 0 100 100" xml:space="preserve"><path fill="#000000" d="M61.088,85.25H25.48c-2.17,0-3.937-1.766-3.937-3.937V32.118c0-2.17,1.766-3.937,3.937-3.937h25.128  c0.039,0.001,0.079,0.001,0.118,0.003c0.363,0.021,0.696,0.152,0.967,0.361c0.072,0.055,0.141,0.117,0.204,0.184  c0,0,0.001,0.001,0.001,0.001c0,0,0,0,0,0c0.014,0.014,0.027,0.029,0.04,0.043l12.645,14.206c0.285,0.32,0.442,0.734,0.442,1.164  v37.17C65.025,83.484,63.259,85.25,61.088,85.25z M25.48,31.681c-0.237,0-0.437,0.2-0.437,0.437v49.196  c0,0.236,0.2,0.437,0.437,0.437h35.608c0.236,0,0.437-0.2,0.437-0.437v-35.42h-8.713c-2.171,0-3.937-1.766-3.937-3.936V31.681H25.48  z M52.375,34.529v7.428c0,0.236,0.199,0.436,0.437,0.436h6.562L52.375,34.529z M78.014,29.548L65.365,15.336  c-0.008-0.01-0.02-0.014-0.029-0.024c-0.105-0.113-0.224-0.212-0.356-0.294c-0.027-0.017-0.054-0.029-0.082-0.044  c-0.118-0.065-0.244-0.117-0.377-0.154c-0.025-0.007-0.048-0.017-0.073-0.023c-0.126-0.029-0.256-0.048-0.392-0.048H38.912  c-2.17,0-3.937,1.766-3.937,3.937v4.685c0,0.966,0.784,1.75,1.75,1.75s1.75-0.784,1.75-1.75v-4.685c0-0.237,0.2-0.437,0.437-0.437  h23.395v10.276c0,2.17,1.766,3.936,3.937,3.936h8.713v35.421c0,0.236-0.2,0.437-0.437,0.437h-4.686c-0.967,0-1.75,0.783-1.75,1.75  s0.783,1.75,1.75,1.75h4.686c2.171,0,3.937-1.766,3.937-3.937V30.712C78.456,30.283,78.299,29.869,78.014,29.548z M66.243,28.962  c-0.236,0-0.437-0.2-0.437-0.436v-7.428l6.999,7.864H66.243z"></path></svg>