<svg xmlns="http://www.w3.org/2000/svg" xmlns:xlink="http://www.w3.org/1999/xlink" version="1.1" x="0px" y="0px" viewBox="0 0 100 100" enable-background="new 0 0 100 100" xml:space="preserve"><path fill="#000000" d="M29.133,82.75c-0.355,0-0.713-0.108-1.02-0.328c-0.687-0.492-0.923-1.405-0.562-2.17L40.734,52.37h-6.488  c-0.612,0-1.179-0.319-1.497-0.843s-0.338-1.174-0.055-1.717l16.504-31.62c0.302-0.578,0.899-0.94,1.551-0.94h17.777  c0.624,0,1.202,0.333,1.515,0.873c0.312,0.541,0.313,1.207,0.003,1.749L59.089,38.95h11.777c0.713,0,1.355,0.433,1.623,1.094  c0.267,0.662,0.105,1.419-0.407,1.915l-41.732,40.3C30.013,82.584,29.574,82.75,29.133,82.75z M37.133,48.87h6.364  c0.6,0,1.158,0.307,1.479,0.813c0.321,0.507,0.36,1.143,0.104,1.685L34.812,73.084L66.535,42.45h-10.47  c-0.624,0-1.202-0.333-1.515-0.873c-0.312-0.541-0.313-1.207-0.003-1.749L65.504,20.75H51.811L37.133,48.87z"></path></svg>