<svg xmlns="http://www.w3.org/2000/svg" xmlns:xlink="http://www.w3.org/1999/xlink" version="1.1" x="0px" y="0px" viewBox="0 0 100 100" enable-background="new 0 0 100 100" xml:space="preserve"><path fill="#000000" d="M20.75,50c0,16.129,13.121,29.25,29.25,29.25c16.128,0,29.25-13.121,29.25-29.25  c0-16.128-13.122-29.25-29.25-29.25C33.871,20.75,20.75,33.872,20.75,50z M50,75.75c-6.471,0-12.387-2.405-16.915-6.36L69.39,33.084  c3.956,4.528,6.36,10.445,6.36,16.916C75.75,64.198,64.199,75.75,50,75.75z M24.25,50c0-14.199,11.552-25.75,25.75-25.75  c6.471,0,12.387,2.404,16.915,6.36L30.61,66.915C26.655,62.387,24.25,56.471,24.25,50z"></path></svg>