<svg xmlns="http://www.w3.org/2000/svg" xmlns:xlink="http://www.w3.org/1999/xlink" version="1.1" x="0px" y="0px" viewBox="0 0 100 100" enable-background="new 0 0 100 100" xml:space="preserve"><path fill="#000000" d="M50,20.75c-16.128,0-29.25,13.122-29.25,29.25c0,16.129,13.122,29.25,29.25,29.25  c16.129,0,29.25-13.121,29.25-29.25C79.25,33.872,66.129,20.75,50,20.75z M24.25,50c0-6.471,2.405-12.387,6.36-16.916L66.915,69.39  C62.387,73.345,56.471,75.75,50,75.75C35.801,75.75,24.25,64.198,24.25,50z M69.39,66.915L33.085,30.61  c4.528-3.955,10.444-6.36,16.915-6.36c14.198,0,25.75,11.551,25.75,25.75C75.75,56.471,73.345,62.387,69.39,66.915z"></path></svg>