<svg xmlns="http://www.w3.org/2000/svg" xmlns:xlink="http://www.w3.org/1999/xlink" version="1.1" x="0px" y="0px" viewBox="0 0 100 100" enable-background="new 0 0 100 100" xml:space="preserve"><path fill="#000000" d="M44.816,82.75c-0.315,0-0.63-0.085-0.908-0.254c-0.523-0.317-0.842-0.885-0.842-1.496V54.854l-20.111-29.64  c-0.325-0.479-0.392-1.089-0.178-1.628l2.077-5.232c0.265-0.667,0.909-1.104,1.626-1.104h47.181c0.732,0,1.388,0.456,1.642,1.143  l1.935,5.232c0.196,0.532,0.123,1.125-0.196,1.593L56.814,54.856v20.818c0,0.653-0.363,1.252-0.943,1.553l-10.248,5.325  C45.37,82.685,45.093,82.75,44.816,82.75z M26.372,24.016l19.893,29.318c0.197,0.29,0.302,0.632,0.302,0.982v23.802l6.748-3.506  V54.316c0-0.352,0.106-0.695,0.305-0.986l20.022-29.338l-1.198-3.242H27.669L26.372,24.016z"></path></svg>