<svg xmlns="http://www.w3.org/2000/svg" xmlns:xlink="http://www.w3.org/1999/xlink" version="1.1" x="0px" y="0px" viewBox="0 0 100 100" enable-background="new 0 0 100 100" xml:space="preserve"><path fill="#000000" d="M71.301,83.424H57c-0.967,0-1.75-0.783-1.75-1.75v-14.25h-10.5v14.25c0,0.967-0.784,1.75-1.75,1.75H28.7  c-0.966,0-1.75-0.783-1.75-1.75V50.38l-7.119-0.18c-0.699-0.018-1.321-0.451-1.581-1.101c-0.26-0.649-0.107-1.392,0.388-1.886  l30.125-30.125c0.684-0.684,1.791-0.684,2.475,0l30.125,30.125c0.495,0.495,0.647,1.237,0.388,1.886  c-0.26,0.65-0.881,1.083-1.581,1.101l-7.118,0.18v31.293C73.051,82.641,72.268,83.424,71.301,83.424z M58.75,79.924h10.801v-31.25  c0-0.949,0.757-1.726,1.706-1.75l4.747-0.12L50,20.801L23.996,46.805l4.748,0.12c0.949,0.024,1.706,0.8,1.706,1.75v31.25h10.8  v-14.25c0-0.967,0.784-1.75,1.75-1.75h14c0.967,0,1.75,0.783,1.75,1.75V79.924z"></path></svg>