<svg xmlns="http://www.w3.org/2000/svg" xmlns:xlink="http://www.w3.org/1999/xlink" version="1.1" x="0px" y="0px" viewBox="0 0 100 100" enable-background="new 0 0 100 100" xml:space="preserve"><path fill="#000000" d="M73.523,40.869h-4.227v-5.821C69.297,24.407,60.64,15.75,50,15.75c-10.641,0-19.297,8.657-19.297,19.298  v5.821h-4.226c-2.068,0-3.75,1.682-3.75,3.75V80.5c0,2.067,1.682,3.75,3.75,3.75h47.047c2.067,0,3.75-1.683,3.75-3.75V44.619  C77.273,42.551,75.591,40.869,73.523,40.869z M34.202,35.048c0-8.711,7.086-15.798,15.797-15.798c8.71,0,15.797,7.087,15.797,15.798  v5.821H34.202V35.048z M73.773,80.5c0,0.133-0.117,0.25-0.25,0.25H26.476c-0.133,0-0.25-0.117-0.25-0.25V44.619  c0-0.133,0.117-0.25,0.25-0.25h47.047c0.133,0,0.25,0.117,0.25,0.25V80.5z M55.118,60.002c0,1.509-0.653,2.865-1.689,3.787v3.89  c0,1.407-1.152,2.559-2.56,2.559H49.13c-1.407,0-2.559-1.152-2.559-2.559v-3.89c-1.037-0.922-1.689-2.278-1.689-3.787  c0-2.829,2.29-5.119,5.117-5.119C52.828,54.883,55.118,57.173,55.118,60.002z"></path></svg>