<svg xmlns="http://www.w3.org/2000/svg" xmlns:xlink="http://www.w3.org/1999/xlink" version="1.1" x="0px" y="0px" viewBox="0 0 100 100" enable-background="new 0 0 100 100" xml:space="preserve"><path fill="#000000" d="M81.237,78.763L64.299,61.824c3.84-4.412,6.174-10.168,6.174-16.463c0-13.846-11.265-25.111-25.111-25.111  c-13.846,0-25.111,11.265-25.111,25.111c0,13.847,11.265,25.111,25.111,25.111c6.295,0,12.051-2.333,16.463-6.174l16.938,16.938  c0.342,0.342,0.789,0.513,1.237,0.513s0.896-0.171,1.237-0.513C81.921,80.554,81.921,79.446,81.237,78.763z M23.75,45.361  c0-11.917,9.695-21.611,21.611-21.611c11.917,0,21.611,9.695,21.611,21.611c0,11.917-9.694,21.611-21.611,21.611  C33.445,66.973,23.75,57.278,23.75,45.361z"></path></svg>