<svg xmlns="http://www.w3.org/2000/svg" xmlns:xlink="http://www.w3.org/1999/xlink" version="1.1" x="0px" y="0px" viewBox="0 0 100 100" enable-background="new 0 0 100 100" xml:space="preserve"><path fill="#000000" d="M59.031,76.75c-0.112,0-0.226-0.008-0.338-0.022c-0.337-0.046-0.652-0.189-0.909-0.411  c-5.255-4.55-11.362-9.522-12.85-10.28h-4.458c-11.796,0-21.393-9.597-21.393-21.393c0-11.796,9.597-21.394,21.393-21.394h19.048  c11.795,0,21.392,9.597,21.392,21.394c0,11.269-8.758,20.529-19.823,21.336l0.365,8.272c0.002,0.035,0.002,0.07,0.002,0.105  c-0.012,0.7-0.318,1.36-0.842,1.81C60.178,76.545,59.613,76.75,59.031,76.75z M40.476,26.75c-9.866,0-17.893,8.027-17.893,17.894  c0,9.866,8.026,17.893,17.893,17.893h4.725c0.661,0,1.856,0.001,12.644,9.216l-0.326-7.389c-0.021-0.477,0.153-0.942,0.483-1.287  s0.787-0.54,1.265-0.54h0.258c9.865,0,17.892-8.026,17.892-17.893c0-9.867-8.026-17.894-17.892-17.894H40.476z"></path></svg>