<svg xmlns="http://www.w3.org/2000/svg" xmlns:xlink="http://www.w3.org/1999/xlink" version="1.1" x="0px" y="0px" viewBox="0 0 100 100" enable-background="new 0 0 100 100" xml:space="preserve"><path fill="#000000" d="M40.894,51.788c0,1.116-0.879,2.029-1.953,2.029h-3.727c-1.074,0-1.952-0.913-1.952-2.029v-3.575  c0-1.116,0.878-2.028,1.952-2.028h3.727c1.074,0,1.953,0.913,1.953,2.028V51.788z M53.817,48.213c0-1.116-0.879-2.028-1.953-2.028  h-3.727c-1.074,0-1.952,0.913-1.952,2.028v3.575c0,1.116,0.878,2.029,1.952,2.029h3.727c1.074,0,1.953-0.913,1.953-2.029V48.213z   M66.74,48.213c0-1.116-0.879-2.028-1.953-2.028h-3.727c-1.074,0-1.952,0.913-1.952,2.028v3.575c0,1.116,0.878,2.029,1.952,2.029  h3.727c1.074,0,1.953-0.913,1.953-2.029V48.213z M79.75,50c0-16.404-13.346-29.75-29.75-29.75S20.25,33.596,20.25,50  S33.596,79.75,50,79.75S79.75,66.404,79.75,50z M76.25,50c0,14.475-11.775,26.25-26.25,26.25c-14.474,0-26.25-11.775-26.25-26.25  c0-14.474,11.776-26.25,26.25-26.25C64.475,23.75,76.25,35.526,76.25,50z"></path></svg>