<svg xmlns="http://www.w3.org/2000/svg" xmlns:xlink="http://www.w3.org/1999/xlink" version="1.1" x="0px" y="0px" viewBox="0 0 100 100" enable-background="new 0 0 100 100" xml:space="preserve"><path fill="#000000" d="M86.729,49.728c-0.105-0.667-0.579-1.19-1.193-1.388c0,0,0.004-0.004,0.004-0.004L29.798,30.3  c-0.659-0.213-1.39-0.015-1.852,0.508c-0.461,0.523-0.567,1.27-0.271,1.901L35.797,50l-8.122,17.291  c-0.296,0.631-0.19,1.378,0.271,1.901c0.338,0.383,0.819,0.593,1.313,0.593c0.18,0,0.362-0.027,0.539-0.085l55.741-18.035  C86.358,51.399,86.863,50.578,86.729,49.728z M73.906,48.25H38.842l-6.284-13.378L73.906,48.25z M32.559,65.129l6.284-13.379h35.064  L32.559,65.129z M28.95,51.749H15c-0.966,0-1.75-0.784-1.75-1.75s0.784-1.75,1.75-1.75h13.95c0.966,0,1.75,0.784,1.75,1.75  S29.916,51.749,28.95,51.749z M26.487,58.279h-4.103c-0.966,0-1.75-0.783-1.75-1.75s0.784-1.75,1.75-1.75h4.103  c0.966,0,1.75,0.783,1.75,1.75S27.453,58.279,26.487,58.279z M26.487,45.22h-4.103c-0.966,0-1.75-0.784-1.75-1.75  s0.784-1.75,1.75-1.75h4.103c0.966,0,1.75,0.784,1.75,1.75S27.453,45.22,26.487,45.22z"></path></svg>