<svg xmlns="http://www.w3.org/2000/svg" xmlns:xlink="http://www.w3.org/1999/xlink" version="1.1" x="0px" y="0px" viewBox="0 0 100 100" enable-background="new 0 0 100 100" xml:space="preserve"><path fill="#000000" d="M50,83.75c-0.252,0-0.504-0.055-0.738-0.163l-14.121-6.569c-0.617-0.287-1.012-0.906-1.012-1.587V31.102  c0-0.966,0.784-1.75,1.75-1.75s1.75,0.784,1.75,1.75v43.212L50,80.07l12.371-5.756V19.75H44.907v43.83l5.025,2.339l5.025-2.339  V31.102c0-0.966,0.783-1.75,1.75-1.75s1.75,0.784,1.75,1.75v33.594c0,0.681-0.395,1.3-1.012,1.587l-6.775,3.152  c-0.468,0.217-1.009,0.217-1.477,0l-6.775-3.152c-0.617-0.287-1.012-0.906-1.012-1.587V18.766c0-1.458,1.386-2.516,3.295-2.516  h17.874c1.909,0,3.295,1.058,3.295,2.516v56.665c0,0.681-0.395,1.3-1.012,1.587l-14.121,6.569C50.504,83.695,50.252,83.75,50,83.75z  "></path></svg>