<svg xmlns="http://www.w3.org/2000/svg" xmlns:xlink="http://www.w3.org/1999/xlink" version="1.1" x="0px" y="0px" viewBox="0 0 100 100" enable-background="new 0 0 100 100" xml:space="preserve"><path fill="#000000" d="M80.529,19.083c-0.535-0.389-1.222-0.429-1.788-0.155c-0.015,0.007-0.021,0.003-0.037,0.011l-59,30.134  c-0.621,0.317-0.995,0.973-0.951,1.668s0.496,1.299,1.152,1.536l20.433,7.381l7.381,20.434c0.237,0.655,0.84,1.108,1.536,1.151  c0.037,0.003,0.074,0.004,0.11,0.004c0.654,0,1.258-0.366,1.558-0.954l30.134-59C81.45,20.527,81.225,19.589,80.529,19.083z   M70.425,27.098l-29.17,29.17l-16.367-5.913L70.425,27.098z M49.642,75.11l-5.913-16.367L72.9,29.573L49.642,75.11z"></path></svg>