<svg xmlns="http://www.w3.org/2000/svg" xmlns:xlink="http://www.w3.org/1999/xlink" version="1.1" x="0px" y="0px" viewBox="0 0 100 100" enable-background="new 0 0 100 100" xml:space="preserve"><path fill="#000000" d="M74.284,25.717c-1.59-1.59-3.711-2.466-5.974-2.466c-2.262,0-4.383,0.875-5.974,2.466L27.709,60.344  c-0.207,0.207-0.359,0.463-0.441,0.743l-3.946,13.419c-0.181,0.615-0.012,1.278,0.441,1.731c0.333,0.333,0.78,0.513,1.237,0.513  c0.165,0,0.331-0.023,0.494-0.071l13.419-3.946c0.281-0.082,0.537-0.234,0.744-0.441l34.627-34.627  c1.59-1.59,2.466-3.711,2.466-5.974S75.874,27.306,74.284,25.717z M30.214,63.472l6.314,6.313l-8.944,2.63L30.214,63.472z   M39.345,67.653l-6.998-6.998l28.772-28.772l6.997,6.998L39.345,67.653z M71.81,35.188l-1.219,1.219l-6.997-6.998l1.218-1.218  c0.93-0.929,2.173-1.441,3.499-1.441c1.327,0,2.569,0.512,3.499,1.441c0.929,0.929,1.44,2.171,1.44,3.499  S72.738,34.259,71.81,35.188z"></path></svg>