<svg xmlns="http://www.w3.org/2000/svg" xmlns:xlink="http://www.w3.org/1999/xlink" version="1.1" x="0px" y="0px" viewBox="0 0 100 100" enable-background="new 0 0 100 100" xml:space="preserve"><path fill="#000000" d="M50.001,86.75C29.736,86.748,13.25,70.263,13.25,50.001c0-20.265,16.486-36.751,36.751-36.751  c20.264,0,36.749,16.486,36.749,36.751C86.75,70.263,70.265,86.748,50.001,86.75z M50.001,16.75  c-18.334,0-33.251,14.917-33.251,33.251c0,18.332,14.917,33.247,33.251,33.249C68.334,83.248,83.25,68.333,83.25,50.001  C83.25,31.667,68.335,16.75,50.001,16.75z M58.197,72.431c-4.037,0-11.021-2.369-19.093-15.294  c-12.416-19.88-3.518-26.491-3.133-26.763l3.24-2.026c2.423-1.514,5.596-0.822,7.072,1.541l3.687,5.904  c1.476,2.363,0.705,5.518-1.718,7.032l-2.162,1.35c0.293,1.274,1.051,3.7,2.958,6.753c1.905,3.051,3.751,4.796,4.771,5.621  l2.161-1.35c2.423-1.513,5.596-0.821,7.072,1.541l3.687,5.904c0.72,1.152,0.931,2.525,0.594,3.866  c-0.331,1.316-1.152,2.44-2.312,3.165l-3.157,1.972C61.689,71.744,60.37,72.431,58.197,72.431z M37.99,33.237  c-0.458,0.399-6.055,5.812,4.083,22.046l0,0c5.59,8.951,10.293,12.083,13.254,13.135c2.788,0.989,4.482,0.336,4.76,0.212l3.08-1.923  c0.389-0.243,0.663-0.615,0.771-1.05c0.104-0.409,0.044-0.82-0.168-1.158l-3.687-5.904c-0.452-0.726-1.463-0.918-2.25-0.427  l-3.157,1.972c-0.547,0.342-1.239,0.355-1.8,0.032c-0.139-0.08-3.446-2.022-6.798-7.391c-3.352-5.368-3.646-9.191-3.658-9.351  c-0.044-0.645,0.271-1.261,0.819-1.603l3.157-1.972c0.786-0.491,1.057-1.482,0.604-2.209l-3.687-5.903  c-0.454-0.726-1.463-0.919-2.25-0.426L37.99,33.237z"></path></svg>