<svg xmlns="http://www.w3.org/2000/svg" xmlns:xlink="http://www.w3.org/1999/xlink" viewBox="0 0 100 100"><defs><style>.a,.c{fill:none;}.b{clip-path:url(#a);}.c{stroke:#000;stroke-linecap:round;stroke-linejoin:round;stroke-width:3px;}</style><clipPath id="a"><rect class="a" width="100" height="100"/></clipPath></defs><title>www_questionmark</title><g class="b"><path d="M50,24.75A25.25,25.25,0,1,0,75.25,50,25.28,25.28,0,0,0,50,24.75Zm0,54A28.75,28.75,0,1,1,78.75,50,28.78,28.78,0,0,1,50,78.75Z"/></g><path d="M51.5,61.3a0.79,0.79,0,0,0-.77-0.8H49.27a0.78,0.78,0,0,0-.77.8V62.7a0.79,0.79,0,0,0,.77.8h1.47a0.79,0.79,0,0,0,.77-0.8V61.3Z"/><path class="c" d="M50,55s0-1.64,0-3,0-2,1.64-4c0.73-.93,7-6.44,2-10.65a5.37,5.37,0,0,0-2.31-1.16A6,6,0,0,0,44,42"/></svg>