<svg xmlns="http://www.w3.org/2000/svg" xmlns:xlink="http://www.w3.org/1999/xlink" version="1.1" x="0px" y="0px" viewBox="0 0 100 100" enable-background="new 0 0 100 100" xml:space="preserve"><path fill="#000000" d="M60.012,36.558c0,0.966,0.783,1.75,1.75,1.75h15.057c0.967,0,1.75-0.784,1.75-1.75V21.501  c0-0.966-0.783-1.75-1.75-1.75s-1.75,0.784-1.75,1.75v9.317C69.384,23.884,60.856,19.75,51.682,19.75  c-16.68,0-30.25,13.57-30.25,30.25s13.57,30.25,30.25,30.25c11.053,0,21.224-6.027,26.542-15.729  c0.465-0.847,0.154-1.911-0.693-2.375c-0.847-0.465-1.91-0.154-2.375,0.693c-4.704,8.58-13.699,13.911-23.474,13.911  c-14.75,0-26.75-12-26.75-26.75s12-26.75,26.75-26.75c8.864,0,17.04,4.367,22.005,11.558H61.762  C60.795,34.808,60.012,35.591,60.012,36.558z"></path></svg>