<svg xmlns="http://www.w3.org/2000/svg" xmlns:xlink="http://www.w3.org/1999/xlink" version="1.1" x="0px" y="0px" viewBox="0 0 100 100" enable-background="new 0 0 100 100" xml:space="preserve"><path fill="#000000" d="M36.81,36.906c1.11-1.11,2.908-1.11,4.018,0c1.109,1.109,1.109,2.908,0,4.018  c-1.11,1.109-2.908,1.109-4.018,0C35.701,39.815,35.701,38.016,36.81,36.906z M55.353,77.13l21.681-21.683c0,0,0.001,0,0.001-0.001  c1.415-1.416,1.498-3.638,0.185-4.95c0,0-23.627-23.628-25.045-25.044c-0.268-0.267-0.614-0.44-0.988-0.495  c-2.926-0.42-16.255-3.144-16.389-3.171c-0.577-0.119-1.173,0.061-1.588,0.477l-10.85,10.85c-0.411,0.411-0.591,0.998-0.481,1.569  c0.023,0.122,2.36,12.254,2.983,16.6c0.054,0.375,0.228,0.722,0.495,0.989c1.417,1.418,25.044,25.044,25.045,25.045  c0.624,0.623,1.453,0.932,2.304,0.932C53.643,78.247,54.608,77.871,55.353,77.13z M25.489,34.931l9.529-9.528  c2.92,0.594,11.828,2.394,15.085,2.928c3.299,3.298,22.901,22.9,24.532,24.532c-0.014,0.031-0.038,0.07-0.078,0.11L52.88,74.652  c-0.041,0.041-0.081,0.066-0.112,0.08c-1.624-1.623-21.215-21.214-24.528-24.528C27.621,46.148,26.025,37.731,25.489,34.931z   M75.796,54.21h0.01H75.796z M56.203,62.239c0.684-0.684,0.684-1.791,0-2.475L44.32,47.882c-0.684-0.684-1.792-0.684-2.475,0  c-0.684,0.684-0.684,1.792,0,2.475l11.883,11.882c0.342,0.342,0.789,0.513,1.237,0.513S55.861,62.581,56.203,62.239z M62.144,56.299  c0.684-0.684,0.684-1.791,0-2.475L50.26,41.941c-0.684-0.684-1.791-0.684-2.475,0c-0.684,0.683-0.684,1.792,0,2.475l11.883,11.883  c0.342,0.342,0.789,0.513,1.237,0.513S61.802,56.641,62.144,56.299z"></path></svg>