<svg xmlns="http://www.w3.org/2000/svg" xmlns:xlink="http://www.w3.org/1999/xlink" version="1.1" x="0px" y="0px" viewBox="0 0 100 100" enable-background="new 0 0 100 100" xml:space="preserve"><path fill="#000000" d="M73.523,40.869h-4.226v-5.821c0-10.641-8.656-19.298-19.3-19.298c-9.929,0-18.182,7.448-19.197,17.326  c-0.099,0.961,0.601,1.821,1.562,1.919c0.963,0.098,1.82-0.601,1.92-1.562c0.817-7.953,7.72-14.183,15.718-14.183  c8.71,0,15.797,7.087,15.797,15.798v5.821H26.477c-2.067,0-3.75,1.682-3.75,3.75V80.5c0,2.067,1.683,3.75,3.75,3.75h47.047  c2.067,0,3.75-1.683,3.75-3.75V44.619C77.273,42.551,75.591,40.869,73.523,40.869z M73.773,80.5c0,0.133-0.117,0.25-0.25,0.25  H26.477c-0.133,0-0.25-0.117-0.25-0.25V44.619c0-0.133,0.117-0.25,0.25-0.25h47.047c0.133,0,0.25,0.117,0.25,0.25V80.5z   M55.118,60.002c0,1.509-0.653,2.865-1.689,3.787v3.89c0,1.407-1.15,2.559-2.559,2.559H49.13c-1.407,0-2.559-1.152-2.559-2.559  v-3.89c-1.036-0.922-1.689-2.278-1.689-3.787c0-2.829,2.29-5.119,5.117-5.119C52.828,54.883,55.118,57.173,55.118,60.002z"></path></svg>