<svg xmlns="http://www.w3.org/2000/svg" xmlns:xlink="http://www.w3.org/1999/xlink" viewBox="0 0 100 100"><defs><style>.a{fill:none;}.b{clip-path:url(#a);}</style><clipPath id="a"><rect class="a" y="-0.5" width="100" height="100"/></clipPath></defs><title>www_warning</title><g class="b"><path d="M50,24.25A25.25,25.25,0,1,0,75.25,49.5,25.28,25.28,0,0,0,50,24.25Zm0,54A28.75,28.75,0,1,1,78.75,49.5,28.78,28.78,0,0,1,50,78.25Z"/></g><rect x="48.5" y="36.5" width="3" height="20" rx="1" ry="1"/><path d="M51.5,61.3a0.79,0.79,0,0,0-.77-0.8H49.27a0.78,0.78,0,0,0-.77.8V62.7a0.79,0.79,0,0,0,.77.8h1.47a0.79,0.79,0,0,0,.77-0.8V61.3Z"/></svg>