<svg xmlns="http://www.w3.org/2000/svg" xmlns:xlink="http://www.w3.org/1999/xlink" version="1.1" x="0px" y="0px" viewBox="0 0 100 100" enable-background="new 0 0 100 100" xml:space="preserve"><path fill="#000000" d="M80,77.432H20c-0.627,0-1.206-0.335-1.518-0.879s-0.31-1.213,0.006-1.754l30-51.364  c0.314-0.537,0.889-0.867,1.511-0.867s1.197,0.33,1.511,0.867l30,51.364c0.316,0.541,0.319,1.21,0.007,1.754  C81.206,77.097,80.627,77.432,80,77.432z M23.049,73.932h53.902L50,27.788L23.049,73.932z M51.004,66.103  c0.627,0,1.139,0.493,1.139,1.096v2.093c0,0.603-0.513,1.096-1.139,1.096h-2.007c-0.628,0-1.139-0.494-1.139-1.096v-2.093  c0-0.603,0.512-1.096,1.139-1.096H51.004z M51.004,39.928c0.627,0,1.139,0.493,1.139,1.097v21.403c0,0.603-0.513,1.097-1.139,1.097  h-2.007c-0.628,0-1.139-0.494-1.139-1.097V41.024c0-0.603,0.512-1.097,1.139-1.097h2.007V39.928z"></path></svg>