<svg xmlns="http://www.w3.org/2000/svg" xmlns:xlink="http://www.w3.org/1999/xlink" version="1.1" x="0px" y="0px" viewBox="0 0 100 100" enable-background="new 0 0 100 100" xml:space="preserve"><path fill="#000000" d="M50,67.166c-15.071,0-32.75-11.347-32.75-17.167S34.929,32.833,50,32.833c17.255,0,32.75,11.66,32.75,17.166  S67.255,67.166,50,67.166z M20.75,50c0.192,2.53,14.352,13.667,29.25,13.667c16.11,0,29.25-10.988,29.25-13.667  S66.11,36.333,50,36.333C35.104,36.333,20.941,47.471,20.75,50z M50,39.723c-5.667,0-10.278,4.61-10.278,10.277  c0,5.667,4.611,10.278,10.278,10.278c5.666,0,10.276-4.61,10.276-10.278C60.276,44.333,55.666,39.723,50,39.723z M50,56.777  c-3.738,0-6.778-3.04-6.778-6.778c0-3.737,3.041-6.777,6.778-6.777c0.327,0,0.645,0.031,0.96,0.076  c-0.421,0.19-0.826,0.432-1.183,0.765c-1.761,1.64-1.859,4.398-0.219,6.159c1.64,1.761,4.398,1.859,6.159,0.219  c0.43-0.4,0.757-0.869,0.988-1.371c0.042,0.305,0.071,0.614,0.071,0.93C56.776,53.737,53.736,56.777,50,56.777z"></path></svg>