<svg xmlns="http://www.w3.org/2000/svg" xmlns:xlink="http://www.w3.org/1999/xlink" version="1.1" x="0px" y="0px" viewBox="0 0 100 100" enable-background="new 0 0 100 100" xml:space="preserve"><path fill="#000000" d="M24.442,83.737c-2.171,0-4.384-0.886-5.838-2.34c-2.603-2.605-3.387-7.645-0.541-10.489l33.789-32.73  c-2.091-5.906-0.61-12.648,3.864-17.122c4.764-4.763,12.104-6.132,18.268-3.403c0.527,0.233,0.905,0.712,1.012,1.279  c0.105,0.567-0.075,1.15-0.483,1.558l-8.02,8.02c-0.664,0.664-1.029,1.551-1.029,2.499s0.365,1.835,1.029,2.499  c1.326,1.328,3.671,1.328,4.997,0l8.021-8.02c0.407-0.408,0.985-0.591,1.559-0.482c0.566,0.105,1.045,0.484,1.279,1.012  c2.729,6.163,1.359,13.504-3.405,18.268c-4.493,4.492-11.256,5.966-17.18,3.842l-32.649,33.79  C27.849,83.183,26.159,83.737,24.442,83.737z M67.366,19.759c-3.375,0-6.712,1.309-9.175,3.772c-3.753,3.752-4.83,9.531-2.681,14.38  c0.298,0.67,0.145,1.456-0.382,1.966l-34.61,33.525c-1.326,1.326-0.808,4.151,0.561,5.521c1.368,1.368,4.194,1.886,5.541,0.541  l33.446-34.615c0.513-0.532,1.303-0.682,1.975-0.381c4.861,2.181,10.661,1.112,14.43-2.657c3.11-3.11,4.382-7.615,3.499-11.829  l-6.004,6.002c-1.324,1.324-3.091,2.054-4.974,2.054s-3.649-0.729-4.974-2.055c-1.324-1.323-2.054-3.09-2.054-4.973  s0.729-3.65,2.055-4.974l6.002-6.002C69.144,19.85,68.253,19.759,67.366,19.759z M23.05,76.951c0.887,0.886,2.323,0.886,3.209,0  c0.886-0.886,0.886-2.323,0-3.209c-0.886-0.886-2.322-0.886-3.209,0C22.164,74.628,22.164,76.065,23.05,76.951z"></path></svg>