<svg xmlns="http://www.w3.org/2000/svg" xmlns:xlink="http://www.w3.org/1999/xlink" version="1.1" x="0px" y="0px" viewBox="0 0 100 100" enable-background="new 0 0 100 100" xml:space="preserve"><path d="M50,78.75c-15.853,0-28.75-12.897-28.75-28.75c0-15.853,12.897-28.75,28.75-28.75c15.853,0,28.75,12.897,28.75,28.75  C78.75,65.853,65.853,78.75,50,78.75z M50,24.75c-13.923,0-25.25,11.327-25.25,25.25S36.077,75.25,50,75.25S75.25,63.923,75.25,50  S63.923,24.75,50,24.75z M52.475,50l7.585-7.585c0.684-0.683,0.684-1.792,0-2.475c-0.684-0.684-1.791-0.684-2.475,0L50,47.525  l-7.585-7.585c-0.684-0.684-1.791-0.684-2.475,0c-0.684,0.683-0.684,1.792,0,2.475L47.525,50l-7.585,7.585  c-0.684,0.684-0.684,1.791,0,2.475c0.342,0.342,0.79,0.513,1.237,0.513s0.896-0.171,1.237-0.513L50,52.475l7.585,7.585  c0.342,0.342,0.789,0.513,1.237,0.513s0.896-0.171,1.237-0.513c0.684-0.684,0.684-1.791,0-2.475L52.475,50z"></path></svg>