<svg xmlns="http://www.w3.org/2000/svg" xmlns:xlink="http://www.w3.org/1999/xlink" version="1.1" x="0px" y="0px" viewBox="0 0 100 100" enable-background="new 0 0 100 100" xml:space="preserve"><path d="M27.5,74.25c-0.448,0-0.896-0.171-1.237-0.513c-0.684-0.684-0.684-1.791,0-2.475l17.591-17.591  c0.684-0.684,1.791-0.684,2.475,0s0.684,1.791,0,2.475L28.737,73.737C28.396,74.079,27.948,74.25,27.5,74.25z M52.475,50  l21.263-21.263c0.684-0.683,0.684-1.792,0-2.475c-0.684-0.684-1.791-0.684-2.475,0L50,47.525L28.737,26.263  c-0.684-0.684-1.791-0.684-2.475,0c-0.684,0.683-0.684,1.792,0,2.475l45,45c0.342,0.342,0.789,0.513,1.237,0.513  s0.896-0.171,1.237-0.513c0.684-0.684,0.684-1.791,0-2.475L52.475,50z"></path></svg>