<svg width="16px" height="16px" viewBox="10 10 16 16" version="1.1" xmlns="http://www.w3.org/2000/svg" xmlns:xlink="http://www.w3.org/1999/xlink">
    <!-- Generator: Sketch 3.8.1 (29687) - http://www.bohemiancoding.com/sketch -->
    <desc>Created with Sketch.</desc>
    <defs></defs>
    <g id="noun_323246" stroke="none" stroke-width="1" fill="none" fill-rule="evenodd" transform="translate(10.000000, 10.000000)">
        <g id="Group" fill="#FFFFFF">
            <path d="M12.2311111,10.3466667 C12.9244444,9.29777778 13.3333333,8.03555556 13.3333333,6.66666667 C13.3333333,2.98666667 10.3466667,0 6.66666667,0 C2.98666667,0 0,2.98666667 0,6.66666667 C0,10.3466667 2.98666667,13.3333333 6.66666667,13.3333333 C8.01777778,13.3333333 9.28,12.9244444 10.3466667,12.2311111 L13.7244444,15.6088889 C13.9733333,15.8577778 14.3111111,16 14.6666667,16 C15.0222222,16 15.36,15.8577778 15.6088889,15.6088889 C15.8577778,15.36 16,15.0222222 16,14.6666667 C16,14.3111111 15.8577778,13.9733333 15.6088889,13.7244444 L12.2311111,10.3466667 L12.2311111,10.3466667 Z M6.66666667,12.4444444 C3.48444444,12.4444444 0.888888889,9.84888889 0.888888889,6.66666667 C0.888888889,3.48444444 3.48444444,0.888888889 6.66666667,0.888888889 C9.84888889,0.888888889 12.4444444,3.48444444 12.4444444,6.66666667 C12.4444444,9.84888889 9.84888889,12.4444444 6.66666667,12.4444444 L6.66666667,12.4444444 Z M14.9866667,14.9866667 C14.8266667,15.1466667 14.5244444,15.1466667 14.3644444,14.9866667 L11.0577778,11.68 C11.2888889,11.4844444 11.4844444,11.2711111 11.68,11.0577778 L14.9866667,14.3644444 C15.0755556,14.4533333 15.1111111,14.56 15.1111111,14.6844444 C15.1111111,14.8088889 15.0577778,14.8977778 14.9866667,14.9866667 L14.9866667,14.9866667 Z" id="Shape"></path>
            <path d="M6.66666667,1.77777778 C3.96444444,1.77777778 1.77777778,3.96444444 1.77777778,6.66666667 C1.77777778,9.36888889 3.96444444,11.5555556 6.66666667,11.5555556 C9.36888889,11.5555556 11.5555556,9.36888889 11.5555556,6.66666667 C11.5555556,3.96444444 9.36888889,1.77777778 6.66666667,1.77777778 L6.66666667,1.77777778 Z M6.66666667,10.6666667 C4.46222222,10.6666667 2.66666667,8.87111111 2.66666667,6.66666667 C2.66666667,4.46222222 4.46222222,2.66666667 6.66666667,2.66666667 C8.87111111,2.66666667 10.6666667,4.46222222 10.6666667,6.66666667 C10.6666667,8.87111111 8.87111111,10.6666667 6.66666667,10.6666667 L6.66666667,10.6666667 Z" id="Shape"></path>
        </g>
    </g>
</svg>