<svg xmlns="http://www.w3.org/2000/svg" xmlns:xlink="http://www.w3.org/1999/xlink" version="1.1" x="0px" y="0px" viewBox="0 0 100 100" enable-background="new 0 0 100 100" xml:space="preserve"><path d="M50.124,33.114c-9.862,0-17.886,8.023-17.886,17.886c0,9.861,8.023,17.885,17.886,17.885S68.01,60.861,68.01,51  C68.01,41.137,59.986,33.114,50.124,33.114z M50.124,65.885c-8.208,0-14.886-6.678-14.886-14.885  c0-8.208,6.678-14.886,14.886-14.886S65.01,42.792,65.01,51C65.01,59.207,58.332,65.885,50.124,65.885z M50.124,38.488  c-0.828,0-1.5,0.672-1.5,1.5v10.392l-4.627,4.626c-0.586,0.586-0.586,1.535,0,2.121c0.293,0.293,0.677,0.439,1.061,0.439  s0.768-0.146,1.061-0.439l5.067-5.066c0.002-0.002,0.002-0.004,0.004-0.006c0.136-0.139,0.245-0.301,0.32-0.482  c0.005-0.012,0.006-0.023,0.011-0.035c0.063-0.164,0.102-0.34,0.103-0.527c0-0.006,0.001-0.01,0.001-0.016V39.988  C51.624,39.16,50.952,38.488,50.124,38.488z M37.869,33.676c0.586-0.586,0.586-1.535,0-2.121s-1.535-0.586-2.121,0l-5.067,5.067  c-0.586,0.586-0.586,1.535,0,2.121c0.293,0.293,0.677,0.439,1.061,0.439s0.768-0.146,1.061-0.439L37.869,33.676z M69.318,36.873  l-5.068-5.067c-0.586-0.586-1.535-0.586-2.121,0s-0.586,1.535,0,2.121l5.068,5.067c0.293,0.293,0.677,0.439,1.061,0.439  s0.768-0.146,1.061-0.439C69.904,38.408,69.904,37.458,69.318,36.873z"></path></svg>