<svg xmlns="http://www.w3.org/2000/svg" xmlns:xlink="http://www.w3.org/1999/xlink" version="1.1" x="0px" y="0px" viewBox="0 0 100 100" enable-background="new 0 0 100 100" xml:space="preserve"><path d="M48.95,64.254c0.14,0.139,0.307,0.25,0.491,0.326c0.008,0.004,0.016,0.004,0.023,0.008c0.169,0.066,0.353,0.105,0.547,0.105  s0.378-0.039,0.548-0.105c0.007-0.004,0.015-0.004,0.021-0.008c0.186-0.076,0.354-0.188,0.493-0.328l8.817-8.816  c0.586-0.586,0.586-1.535,0-2.121c-0.293-0.293-0.677-0.439-1.061-0.439s-0.768,0.146-1.061,0.439l-6.259,6.258V36.807  c0-0.828-0.672-1.5-1.5-1.5c-0.828,0-1.5,0.672-1.5,1.5v22.765l-6.28-6.28c-0.293-0.293-0.677-0.439-1.061-0.439  s-0.768,0.146-1.061,0.439c-0.586,0.585-0.586,1.535,0,2.121L48.95,64.254z M50,74.486c13.502,0,24.487-10.984,24.487-24.486  c0-13.502-10.984-24.486-24.487-24.486c-13.502,0-24.486,10.984-24.486,24.486C25.514,63.502,36.499,74.486,50,74.486z M50,28.514  c11.848,0,21.487,9.639,21.487,21.486c0,11.847-9.639,21.486-21.487,21.486c-11.848,0-21.486-9.639-21.486-21.486  C28.514,38.153,38.153,28.514,50,28.514z"></path></svg>