<svg xmlns="http://www.w3.org/2000/svg" xmlns:xlink="http://www.w3.org/1999/xlink" version="1.1" x="0px" y="0px" viewBox="0 0 100 100" enable-background="new 0 0 100 100" xml:space="preserve"><path d="M38.462,40.036c0.384,0,0.768-0.146,1.061-0.439l8.963-8.963v30.859c0,0.828,0.671,1.5,1.5,1.5c0.828,0,1.5-0.672,1.5-1.5  V30.634l8.992,8.992c0.293,0.293,0.677,0.439,1.061,0.439s0.768-0.146,1.061-0.439c0.586-0.585,0.586-1.536,0-2.121L51.047,25.953  c-0.14-0.14-0.307-0.25-0.492-0.327c-0.007-0.003-0.015-0.004-0.021-0.007c-0.17-0.066-0.354-0.106-0.548-0.106  c-0.194,0-0.378,0.04-0.548,0.106c-0.007,0.003-0.015,0.004-0.022,0.007c-0.186,0.077-0.353,0.188-0.493,0.328L37.401,37.476  c-0.586,0.585-0.586,1.536,0,2.121C37.694,39.89,38.078,40.036,38.462,40.036z M73.003,48.499H61.538c-0.828,0-1.5,0.671-1.5,1.5  c0,0.828,0.672,1.5,1.5,1.5h9.935v19.988H28.497V51.499h9.965c0.829,0,1.5-0.672,1.5-1.5c0-0.829-0.671-1.5-1.5-1.5H26.997  c-0.829,0-1.5,0.671-1.5,1.5v22.988c0,0.828,0.671,1.5,1.5,1.5h45.976c0.828,0,1.5-0.672,1.5-1.5V50.299  c0.02-0.097,0.03-0.197,0.03-0.3C74.503,49.17,73.831,48.499,73.003,48.499z"></path></svg>