<svg xmlns="http://www.w3.org/2000/svg" xmlns:xlink="http://www.w3.org/1999/xlink" version="1.1" x="0px" y="0px" viewBox="0 0 100 100" enable-background="new 0 0 100 100" xml:space="preserve"><path d="M50,25.514c-13.502,0-24.486,10.984-24.486,24.486c0,13.501,10.984,24.486,24.486,24.486S74.486,63.502,74.486,50  C74.486,36.499,63.502,25.514,50,25.514z M60.598,47.804c-0.488,0.488-1.128,0.732-1.768,0.732s-1.279-0.244-1.768-0.732  l-4.573-4.573v19.576c0,1.381-1.119,2.5-2.5,2.5s-2.5-1.119-2.5-2.5V43.23l-4.552,4.552c-0.487,0.488-1.128,0.732-1.768,0.732  s-1.28-0.244-1.768-0.732c-0.977-0.976-0.977-2.56,0-3.535l8.817-8.816c0.116-0.117,0.245-0.222,0.383-0.314  c0.061-0.04,0.127-0.067,0.189-0.103c0.08-0.044,0.156-0.092,0.24-0.127c0.084-0.034,0.17-0.054,0.256-0.079  c0.07-0.021,0.139-0.048,0.211-0.062c0.162-0.032,0.326-0.05,0.49-0.05c0.002,0,0.005,0.001,0.008,0.001  c0.16,0.001,0.322,0.017,0.48,0.049c0.079,0.016,0.151,0.044,0.227,0.067c0.081,0.023,0.162,0.042,0.24,0.074  c0.09,0.037,0.172,0.088,0.256,0.135c0.058,0.032,0.118,0.057,0.175,0.094c0.138,0.094,0.268,0.198,0.385,0.315l8.838,8.839  C61.574,45.246,61.574,46.828,60.598,47.804z"></path></svg>