<svg xmlns="http://www.w3.org/2000/svg" xmlns:xlink="http://www.w3.org/1999/xlink" version="1.1" x="0px" y="0px" viewBox="0 0 100 100" enable-background="new 0 0 100 100" xml:space="preserve"><path d="M74.486,50c0-13.502-10.984-24.486-24.486-24.486c-13.501,0-24.486,10.984-24.486,24.486  c0,13.501,10.984,24.486,24.486,24.486C63.502,74.486,74.486,63.502,74.486,50z M52.196,60.598  c-0.488-0.488-0.732-1.127-0.732-1.768c0-0.639,0.244-1.279,0.732-1.768l4.573-4.572H37.194c-1.381,0-2.5-1.119-2.5-2.5  c0-1.381,1.119-2.5,2.5-2.5h19.577l-4.552-4.552c-0.488-0.487-0.732-1.128-0.732-1.768s0.244-1.28,0.732-1.768  c0.976-0.977,2.56-0.977,3.535,0l8.816,8.817c0.117,0.116,0.222,0.245,0.314,0.383c0.04,0.061,0.067,0.127,0.103,0.189  c0.044,0.08,0.092,0.156,0.127,0.24c0.034,0.084,0.054,0.17,0.079,0.256c0.021,0.07,0.048,0.139,0.062,0.211  c0.032,0.162,0.05,0.326,0.05,0.49c0,0.002-0.001,0.005-0.001,0.008c-0.001,0.16-0.017,0.322-0.049,0.48  c-0.016,0.079-0.044,0.151-0.067,0.227c-0.023,0.08-0.042,0.162-0.074,0.24c-0.037,0.09-0.088,0.172-0.135,0.256  c-0.032,0.057-0.057,0.117-0.094,0.174c-0.094,0.139-0.198,0.268-0.315,0.385l-8.839,8.838  C54.755,61.574,53.173,61.574,52.196,60.598z"></path></svg>