<svg xmlns="http://www.w3.org/2000/svg" xmlns:xlink="http://www.w3.org/1999/xlink" version="1.1" x="0px" y="0px" viewBox="0 0 100 100" enable-background="new 0 0 100 100" xml:space="preserve"><path d="M50,74.486c13.502,0,24.487-10.984,24.487-24.486S63.503,25.515,50,25.515c-13.501,0-24.486,10.984-24.486,24.486  S36.499,74.486,50,74.486z M39.403,52.196c0.488-0.488,1.127-0.732,1.768-0.732c0.639,0,1.279,0.244,1.768,0.732l4.572,4.573V37.194  c0-1.381,1.119-2.5,2.5-2.5s2.5,1.119,2.5,2.5v19.576l4.552-4.552c0.487-0.488,1.128-0.732,1.768-0.732s1.28,0.244,1.768,0.732  c0.977,0.976,0.977,2.56,0,3.535l-8.817,8.816c-0.116,0.117-0.245,0.222-0.383,0.314c-0.061,0.04-0.127,0.067-0.189,0.103  c-0.08,0.044-0.156,0.092-0.24,0.127c-0.084,0.034-0.17,0.054-0.256,0.079c-0.07,0.021-0.139,0.048-0.211,0.062  c-0.163,0.032-0.327,0.05-0.491,0.05c-0.002,0-0.005-0.001-0.008-0.001c-0.16-0.001-0.322-0.017-0.48-0.049  c-0.079-0.016-0.151-0.044-0.227-0.067c-0.08-0.023-0.162-0.042-0.24-0.074c-0.09-0.037-0.172-0.088-0.256-0.135  c-0.057-0.032-0.117-0.057-0.174-0.094c-0.139-0.094-0.268-0.198-0.385-0.315l-8.838-8.839  C38.427,54.755,38.427,53.173,39.403,52.196z"></path></svg>