<svg xmlns="http://www.w3.org/2000/svg" xmlns:xlink="http://www.w3.org/1999/xlink" version="1.1" x="0px" y="0px" viewBox="0 0 100 100" enable-background="new 0 0 100 100" xml:space="preserve"><path d="M51.051,35.747c-0.14-0.14-0.307-0.25-0.491-0.327c-0.008-0.003-0.016-0.004-0.023-0.007  c-0.169-0.067-0.353-0.106-0.547-0.106s-0.378,0.04-0.548,0.106c-0.007,0.003-0.015,0.004-0.022,0.007  c-0.186,0.077-0.353,0.188-0.493,0.328l-8.817,8.817c-0.586,0.585-0.586,1.535,0,2.121c0.293,0.293,0.677,0.439,1.061,0.439  s0.768-0.146,1.061-0.439l6.259-6.258v22.766c0,0.828,0.671,1.5,1.5,1.5c0.828,0,1.5-0.672,1.5-1.5V40.427l6.28,6.281  c0.293,0.293,0.677,0.439,1.061,0.439s0.768-0.146,1.061-0.439c0.586-0.585,0.586-1.535,0-2.121L51.051,35.747z M50,25.514  c-13.502,0-24.486,10.984-24.486,24.486S36.498,74.486,50,74.486S74.486,63.502,74.486,50S63.502,25.514,50,25.514z M50,71.486  c-11.848,0-21.486-9.639-21.486-21.486S38.152,28.514,50,28.514S71.486,38.152,71.486,50S61.848,71.486,50,71.486z"></path></svg>