<svg xmlns="http://www.w3.org/2000/svg" xmlns:xlink="http://www.w3.org/1999/xlink" version="1.1" x="0px" y="0px" viewBox="0 0 100 100" enable-background="new 0 0 100 100" xml:space="preserve"><path d="M49.736,29.033c-11.053,0-20.045,8.993-20.045,20.046c0,11.055,8.992,20.048,20.045,20.048  c11.055,0,20.048-8.993,20.048-20.048C69.784,38.026,60.791,29.033,49.736,29.033z M49.736,66.127  c-9.398,0-17.045-7.647-17.045-17.048c0-9.399,7.646-17.046,17.045-17.046c9.401,0,17.048,7.647,17.048,17.046  C66.784,58.479,59.137,66.127,49.736,66.127z M60.896,48.028l-8.605-8.605c-0.586-0.586-1.535-0.586-2.121,0  c-0.586,0.585-0.586,1.536,0,2.121l6.035,6.035H39.638c-0.829,0-1.5,0.671-1.5,1.5s0.671,1.5,1.5,1.5h16.591l-6.037,6.038  c-0.585,0.586-0.585,1.536,0,2.121c0.293,0.293,0.677,0.439,1.061,0.439s0.768-0.146,1.061-0.439l8.584-8.587  c0.293-0.293,0.439-0.677,0.439-1.061S61.19,48.322,60.896,48.028C60.896,48.028,60.896,48.028,60.896,48.028z"></path></svg>