<svg xmlns="http://www.w3.org/2000/svg" xmlns:xlink="http://www.w3.org/1999/xlink" version="1.1" x="0px" y="0px" viewBox="0 0 100 100" enable-background="new 0 0 100 100" xml:space="preserve"><path d="M25.516,50.001c0,13.502,10.984,24.487,24.486,24.487c13.502,0,24.486-10.984,24.486-24.487  c0-13.501-10.984-24.486-24.486-24.486C36.5,25.516,25.516,36.5,25.516,50.001z M47.806,39.404c0.488,0.488,0.732,1.127,0.732,1.768  c0,0.639-0.244,1.279-0.732,1.768l-4.573,4.572h19.576c1.381,0,2.5,1.119,2.5,2.5s-1.119,2.5-2.5,2.5H43.232l4.552,4.552  c0.488,0.487,0.732,1.128,0.732,1.768s-0.244,1.28-0.732,1.768c-0.976,0.977-2.56,0.977-3.535,0l-8.816-8.817  c-0.117-0.116-0.222-0.245-0.314-0.383c-0.04-0.061-0.067-0.127-0.103-0.189c-0.044-0.08-0.092-0.156-0.127-0.24  c-0.034-0.084-0.054-0.17-0.079-0.256c-0.021-0.07-0.048-0.139-0.062-0.211c-0.032-0.163-0.05-0.327-0.05-0.491  c0-0.002,0.001-0.005,0.001-0.008c0.001-0.16,0.017-0.322,0.049-0.48c0.016-0.079,0.044-0.151,0.067-0.227  c0.023-0.08,0.042-0.162,0.074-0.24c0.037-0.09,0.088-0.172,0.135-0.256c0.032-0.057,0.057-0.117,0.094-0.174  c0.094-0.139,0.198-0.268,0.315-0.385l8.839-8.838C45.248,38.428,46.83,38.428,47.806,39.404z"></path></svg>