<svg xmlns="http://www.w3.org/2000/svg" xmlns:xlink="http://www.w3.org/1999/xlink" version="1.1" x="0px" y="0px" viewBox="0 0 100 100" enable-background="new 0 0 100 100" xml:space="preserve"><path d="M35.749,48.951c-0.139,0.14-0.25,0.307-0.326,0.491c-0.004,0.008-0.004,0.016-0.008,0.023  c-0.066,0.169-0.105,0.353-0.105,0.547s0.039,0.378,0.105,0.548c0.004,0.007,0.004,0.015,0.008,0.021  c0.076,0.186,0.188,0.354,0.328,0.493l8.816,8.817c0.586,0.586,1.535,0.586,2.121,0c0.293-0.293,0.439-0.677,0.439-1.061  s-0.146-0.768-0.439-1.061l-6.258-6.259h22.765c0.828,0,1.5-0.672,1.5-1.5c0-0.828-0.672-1.5-1.5-1.5H40.43l6.28-6.28  c0.293-0.293,0.439-0.677,0.439-1.061s-0.146-0.768-0.439-1.061c-0.585-0.586-1.535-0.586-2.121,0L35.749,48.951z M25.516,50.001  c0,13.502,10.984,24.487,24.486,24.487c13.502,0,24.486-10.984,24.486-24.487c0-13.502-10.984-24.486-24.486-24.486  C36.5,25.515,25.516,36.5,25.516,50.001z M71.488,50.001c0,11.848-9.639,21.487-21.486,21.487c-11.847,0-21.486-9.639-21.486-21.487  c0-11.848,9.639-21.486,21.486-21.486C61.85,28.515,71.488,38.154,71.488,50.001z"></path></svg>