<svg xmlns="http://www.w3.org/2000/svg" xmlns:xlink="http://www.w3.org/1999/xlink" version="1.1" x="0px" y="0px" viewBox="0 0 100 100" enable-background="new 0 0 100 100" xml:space="preserve"><path d="M73.276,63.991c-2.161-2.524-8.36-4.601-14.737-6.469c-0.419-0.122-0.847-0.247-1.149-0.34  c0.107-0.359,0.41-1.034,1.221-2.268l0.2-0.306c0.899-1.369,1.351-2.057,1.729-3.955c0.072-0.364,0.474-1.224,0.86-1.62  c1.002-1.028,2.042-4.598,1.381-6.582c-0.023-0.07-0.082-0.21-0.175-0.397c-0.106-0.215-0.432-0.869-0.409-1.206  c0.159-2.318-0.07-4.472-0.681-6.398c-0.877-2.775-3.407-5.287-6.445-6.398c-1.943-0.711-3.637-0.771-5.071-0.771  c-1.435,0-3.128,0.06-5.071,0.771c-3.038,1.11-5.567,3.622-6.446,6.397c-0.61,1.929-0.84,4.082-0.681,6.399  c0.023,0.336-0.302,0.99-0.409,1.205c-0.093,0.187-0.151,0.327-0.174,0.396c-0.662,1.986,0.378,5.556,1.38,6.584  c0.386,0.396,0.788,1.255,0.86,1.621c0.378,1.897,0.83,2.585,1.729,3.954l0.2,0.306c0.811,1.233,1.114,1.908,1.222,2.268  c-0.305,0.093-0.731,0.218-1.149,0.34c-6.378,1.868-12.577,3.944-14.738,6.47c-1.126,1.316-1.486,2.812-1.013,4.208  c0.534,1.578,2.053,2.743,4.168,3.195c5.146,1.101,11.514,1.322,20.122,1.322s14.976-0.222,20.121-1.322  c2.115-0.452,3.635-1.617,4.169-3.195C74.763,66.804,74.402,65.309,73.276,63.991z M71.448,67.239  c-0.143,0.419-0.73,0.961-1.954,1.223C64.606,69.508,58.411,69.718,50,69.718c-8.412,0-14.607-0.21-19.494-1.256  c-1.225-0.262-1.813-0.804-1.954-1.223c-0.154-0.456,0.16-0.957,0.451-1.297c1.878-2.195,10.177-4.625,13.301-5.54  c1.139-0.334,1.612-0.474,1.885-0.592c0.674-0.29,1.158-0.829,1.364-1.517c0.453-1.513-0.528-3.31-1.656-5.026l-0.199-0.304  c-0.812-1.237-1.03-1.57-1.294-2.894c-0.176-0.885-0.843-2.298-1.615-3.085c-0.375-0.508-0.975-2.654-0.738-3.532l0.03-0.063  c0.258-0.519,0.794-1.598,0.715-2.746c-0.133-1.94,0.052-3.719,0.548-5.289c0.599-1.892,2.454-3.695,4.616-4.485  c1.482-0.543,2.809-0.588,4.04-0.588s2.558,0.045,4.041,0.588c2.162,0.791,4.017,2.593,4.615,4.486  c0.497,1.568,0.682,3.347,0.549,5.288c-0.079,1.148,0.457,2.228,0.715,2.746l0.031,0.063c0.236,0.875-0.362,3.022-0.698,3.486  c-0.813,0.833-1.48,2.246-1.655,3.129c-0.265,1.325-0.482,1.658-1.295,2.895l-0.199,0.304c-1.128,1.717-2.109,3.514-1.656,5.026  c0.206,0.688,0.69,1.227,1.364,1.517c0.272,0.118,0.745,0.258,1.884,0.592c3.124,0.915,11.423,3.345,13.302,5.539  C71.288,66.282,71.603,66.783,71.448,67.239z"></path></svg>