<svg xmlns="http://www.w3.org/2000/svg" xmlns:xlink="http://www.w3.org/1999/xlink" version="1.1" x="0px" y="0px" viewBox="0 0 100 100" enable-background="new 0 0 100 100" xml:space="preserve"><path d="M64.562,63.555c3.316-3.559,5.363-8.316,5.363-13.555c0-10.986-8.938-19.925-19.925-19.925S30.075,39.013,30.075,50  c0,5.209,2.025,9.944,5.31,13.497c0.065,0.088,0.136,0.168,0.216,0.238c3.631,3.805,8.737,6.191,14.399,6.191  c5.689,0,10.816-2.41,14.45-6.248C64.49,63.639,64.526,63.598,64.562,63.555z M50,33.075c9.332,0,16.925,7.593,16.925,16.925  c0,4.092-1.46,7.848-3.885,10.776c-2.373-1.039-5.273-1.891-6.935-2.377c-0.113-0.033-0.221-0.064-0.319-0.094  c0.127-0.254,0.335-0.613,0.673-1.125l0.1-0.152c0.64-0.975,0.993-1.512,1.271-2.924c0.04-0.195,0.291-0.711,0.48-0.908  c0.796-0.813,1.61-3.465,1.079-5.053c-0.021-0.063-0.07-0.188-0.151-0.354c-0.154-0.313-0.235-0.523-0.24-0.607  c0.121-1.675-0.046-3.241-0.491-4.648c-0.652-2.102-2.485-3.932-4.787-4.777c-1.367-0.498-2.592-0.566-3.73-0.566  c-1.119,0-2.344,0.068-3.708,0.566c-2.293,0.84-4.129,2.668-4.788,4.767c-0.446,1.397-0.614,2.962-0.499,4.654  c-0.003,0.071-0.046,0.237-0.236,0.618c-0.073,0.148-0.12,0.262-0.144,0.332c-0.532,1.598,0.272,4.247,1.062,5.065  c0.198,0.203,0.457,0.732,0.495,0.91c0.279,1.414,0.632,1.951,1.271,2.926l0.133,0.203c0.32,0.482,0.518,0.828,0.641,1.074  c-0.099,0.029-0.206,0.061-0.319,0.094c-1.662,0.486-4.563,1.338-6.936,2.377c-2.425-2.928-3.885-6.684-3.885-10.776  C33.075,40.667,40.668,33.075,50,33.075z M39.263,63.072c1.96-0.762,4.14-1.402,5.478-1.795c0.848-0.25,1.152-0.34,1.367-0.434  c0.596-0.258,1.023-0.736,1.205-1.35c0.37-1.246-0.376-2.621-1.262-3.959l-0.102-0.154c-0.568-0.865-0.671-1.021-0.842-1.887  c-0.14-0.648-0.612-1.672-1.22-2.328c-0.243-0.416-0.524-1.624-0.443-2.038c0.187-0.373,0.616-1.24,0.541-2.156  c-0.089-1.313,0.034-2.502,0.366-3.544c0.377-1.198,1.566-2.345,2.959-2.854c0.972-0.355,1.855-0.385,2.696-0.385  c0.823,0,1.708,0.029,2.681,0.383c1.396,0.514,2.583,1.66,2.956,2.859c0.328,1.037,0.453,2.258,0.361,3.54  c-0.061,0.88,0.312,1.677,0.544,2.149c0.084,0.428-0.198,1.629-0.442,2.04c-0.623,0.674-1.091,1.709-1.221,2.361  c-0.165,0.84-0.268,0.994-0.835,1.859l-0.134,0.205c-0.858,1.295-1.601,2.668-1.23,3.91c0.183,0.613,0.612,1.092,1.21,1.35  c0.212,0.092,0.517,0.182,1.364,0.432c1.337,0.393,3.517,1.033,5.477,1.795c-2.924,2.406-6.664,3.854-10.737,3.854  S42.187,65.479,39.263,63.072z"></path></svg>