<svg xmlns="http://www.w3.org/2000/svg" xmlns:xlink="http://www.w3.org/1999/xlink" version="1.1" x="0px" y="0px" viewBox="0 0 100 100" enable-background="new 0 0 100 100" xml:space="preserve"><path d="M66.176,63.125H64.76V45c0-0.829-0.672-1.5-1.5-1.5h-5.13v-8.125c0-0.829-0.672-1.5-1.5-1.5H50c-0.829,0-1.5,0.671-1.5,1.5  v4.916h-5.13c-0.829,0-1.5,0.671-1.5,1.5v4.918h-5.13c-0.829,0-1.5,0.671-1.5,1.5v14.916h-1.417c-0.829,0-1.5,0.672-1.5,1.5  s0.671,1.5,1.5,1.5h32.352c0.828,0,1.5-0.672,1.5-1.5S67.004,63.125,66.176,63.125z M38.24,49.709h3.63v13.416h-3.63V49.709z   M44.87,43.291h3.63v19.834h-3.63V43.291z M51.5,36.875h3.63v26.25H51.5V36.875z M58.13,63.125V46.5h3.63v16.625H58.13z"></path></svg>