<svg xmlns="http://www.w3.org/2000/svg" xmlns:xlink="http://www.w3.org/1999/xlink" version="1.1" x="0px" y="0px" viewBox="0 0 100 100" enable-background="new 0 0 100 100" xml:space="preserve"><path d="M45.632,42.097c1.277-0.764,2.764-1.209,4.356-1.209c4.708,0,8.539,3.83,8.539,8.537v5.568l4.647,4.648l-1.647-3.398v-6.818  c0-4.961-3.151-9.188-7.556-10.814c0.422-0.699,0.68-1.51,0.68-2.385c0-2.57-2.092-4.66-4.662-4.66c-2.569,0-4.661,2.09-4.661,4.66  c0,0.875,0.258,1.684,0.679,2.385c-0.906,0.334-1.754,0.784-2.537,1.322L45.632,42.097z M49.989,34.563  c0.916,0,1.662,0.746,1.662,1.66c0,0.918-0.746,1.662-1.662,1.662s-1.661-0.746-1.661-1.662  C48.328,35.31,49.073,34.563,49.989,34.563z M39.74,60.462l1.15-2.375h13.661l-3-3h-10.1v-5.662c0-1.295,0.299-2.52,0.816-3.621  l-2.218-2.219c-1.013,1.713-1.599,3.708-1.599,5.84v6.818l-2.456,5.064c-0.227,0.465-0.196,1.014,0.079,1.449  c0.273,0.439,0.754,0.705,1.271,0.705h6.354c0.679,2.848,3.238,4.975,6.291,4.975c3.054,0,5.612-2.127,6.292-4.975h3.643l-2.998-3  H39.74z M49.989,65.437c-1.376,0-2.558-0.811-3.12-1.975h6.24C52.548,64.626,51.366,65.437,49.989,65.437z M68.353,66.233  L33.769,31.646c-0.293-0.293-0.677-0.439-1.061-0.439s-0.768,0.146-1.061,0.439c-0.586,0.586-0.586,1.535,0,2.121l34.584,34.588  c0.293,0.293,0.677,0.439,1.061,0.439s0.768-0.146,1.061-0.439C68.938,67.769,68.938,66.819,68.353,66.233z"></path></svg>