<svg xmlns="http://www.w3.org/2000/svg" xmlns:xlink="http://www.w3.org/1999/xlink" version="1.1" x="0px" y="0px" viewBox="0 0 100 100" enable-background="new 0 0 100 100" xml:space="preserve"><path d="M70.903,43.687c-0.586-0.586-1.535-0.586-2.121,0s-0.586,1.536,0,2.122c1.6,1.599,2.479,3.725,2.479,5.986  c0,2.262-0.881,4.388-2.481,5.987c-0.586,0.585-0.586,1.535,0,2.121c0.293,0.293,0.677,0.439,1.061,0.439s0.768-0.146,1.061-0.439  c2.167-2.165,3.36-5.045,3.36-8.108C74.263,48.731,73.069,45.852,70.903,43.687z M64.562,47.908c-0.586,0.586-0.586,1.536,0,2.122  c0.472,0.471,0.73,1.097,0.73,1.764s-0.26,1.295-0.732,1.768c-0.586,0.586-0.586,1.535,0,2.121c0.293,0.293,0.677,0.439,1.061,0.439  s0.768-0.146,1.061-0.439c1.039-1.039,1.611-2.42,1.611-3.888c0.001-1.469-0.571-2.849-1.609-3.887  C66.097,47.323,65.146,47.322,64.562,47.908z M35.438,53.559c-0.472-0.472-0.731-1.098-0.731-1.765c0-0.667,0.261-1.295,0.733-1.768  c0.586-0.585,0.586-1.536,0-2.121c-0.586-0.586-1.535-0.586-2.121,0c-1.039,1.039-1.611,2.419-1.612,3.888  c0,1.469,0.572,2.85,1.61,3.887c0.293,0.293,0.677,0.439,1.061,0.439s0.768-0.146,1.061-0.439  C36.024,55.094,36.024,54.144,35.438,53.559z M31.22,43.686c-0.586-0.586-1.536-0.585-2.122,0c-2.167,2.166-3.36,5.045-3.361,8.109  c0,3.062,1.193,5.942,3.359,8.107c0.293,0.293,0.677,0.439,1.061,0.439s0.768-0.146,1.061-0.439c0.585-0.586,0.585-1.535,0-2.121  c-1.599-1.6-2.48-3.725-2.48-5.986c0-2.262,0.882-4.388,2.482-5.987C31.805,45.221,31.805,44.271,31.22,43.686z M61.538,55.831  v-6.819c0-4.96-3.152-9.187-7.555-10.814c0.422-0.7,0.679-1.511,0.679-2.386c0-2.57-2.092-4.66-4.662-4.66s-4.661,2.09-4.661,4.66  c0,0.875,0.257,1.685,0.678,2.385c-4.402,1.627-7.555,5.854-7.555,10.815v6.819l-2.456,5.064c-0.226,0.465-0.196,1.013,0.079,1.45  c0.274,0.438,0.754,0.704,1.271,0.704h6.353c0.679,2.848,3.239,4.975,6.292,4.975c3.053,0,5.613-2.127,6.292-4.975h6.352  c0.008,0,0.015,0.001,0.02,0c0.829,0,1.5-0.672,1.5-1.5c0-0.318-0.099-0.613-0.268-0.855L61.538,55.831z M50,34.151  c0.916,0,1.662,0.745,1.662,1.66c0,0.917-0.746,1.662-1.662,1.662s-1.661-0.746-1.661-1.662C48.339,34.896,49.084,34.151,50,34.151z   M41.462,49.012c0-4.708,3.83-8.538,8.537-8.538c4.708,0,8.539,3.83,8.539,8.538v5.663H41.462V49.012z M50,65.024  c-1.376,0-2.558-0.811-3.12-1.975h6.24C52.559,64.214,51.377,65.024,50,65.024z M39.75,60.05l1.151-2.375h18.197l1.15,2.375H39.75z"></path></svg>