<svg xmlns="http://www.w3.org/2000/svg" xmlns:xlink="http://www.w3.org/1999/xlink" version="1.1" x="0px" y="0px" viewBox="0 0 100 100" enable-background="new 0 0 100 100" xml:space="preserve"><path d="M64.159,35.238c-0.787-0.785-1.832-1.218-2.942-1.218c-1.111,0-2.156,0.433-2.942,1.218  c-0.448,0.448-0.766,0.985-0.97,1.565c-1.561-0.765-3.281-1.181-5.068-1.181c-3.082,0-5.979,1.201-8.158,3.38l-2.974,2.974  c-2.748,2.748-5.32,2.904-5.869,2.906c-0.424-0.033-0.846,0.121-1.159,0.436c-1.497,1.498-0.136,4.074,1.019,5.883  c0.481,0.755,1.059,1.559,1.705,2.389c-1.765,2.524-1.527,6.032,0.725,8.283c1.262,1.262,2.92,1.894,4.578,1.894  c1.302,0,2.6-0.396,3.711-1.173c2.469,1.923,4.933,3.386,6.566,3.386c0.864,0,1.403-0.36,1.703-0.661  c0.303-0.305,0.457-0.722,0.433-1.145c-0.006-0.173-0.048-2.927,2.906-5.881l2.973-2.973c3.572-3.571,4.298-8.92,2.196-13.225  c0.582-0.204,1.12-0.522,1.568-0.971C65.782,39.502,65.782,36.861,64.159,35.238z M60.055,38.182c0-0.31,0.121-0.602,0.341-0.821  s0.511-0.34,0.821-0.34c0.31,0,0.602,0.121,0.821,0.34c0.453,0.453,0.453,1.19,0,1.644c-0.438,0.438-1.201,0.438-1.642,0  c-0.001,0-0.002-0.002-0.003-0.003L60.393,39C60.176,38.781,60.055,38.491,60.055,38.182z M39.646,59.752  c-0.656-0.656-1.018-1.528-1.018-2.457c0-0.433,0.086-0.852,0.236-1.243c0.687,0.766,1.412,1.538,2.178,2.304  c0.715,0.715,1.496,1.452,2.307,2.177C42.106,61.007,40.646,60.751,39.646,59.752z M58.273,53.199l-2.973,2.973  c-2.434,2.434-3.354,4.947-3.659,6.604c-1.477-0.614-4.584-2.647-8.479-6.541c-3.871-3.871-5.924-7.011-6.541-8.482  c1.573-0.278,4.078-1.129,6.604-3.654l2.974-2.974c1.612-1.612,3.757-2.501,6.037-2.501c2.279,0,4.424,0.889,6.037,2.502  c0.001,0,0.002,0.002,0.003,0.002C61.603,44.457,61.602,49.871,58.273,53.199z"></path></svg>