<svg xmlns="http://www.w3.org/2000/svg" xmlns:xlink="http://www.w3.org/1999/xlink" version="1.1" x="0px" y="0px" viewBox="0 0 100 100" enable-background="new 0 0 100 100" xml:space="preserve"><path d="M61.538,55.831v-6.819c0-4.96-3.152-9.187-7.555-10.814c0.422-0.7,0.679-1.511,0.679-2.386c0-2.57-2.092-4.66-4.662-4.66  s-4.661,2.09-4.661,4.66c0,0.875,0.257,1.685,0.678,2.385c-4.402,1.627-7.555,5.854-7.555,10.815v6.819l-2.456,5.064  c-0.226,0.465-0.196,1.013,0.079,1.45c0.274,0.438,0.754,0.704,1.271,0.704h6.353c0.679,2.848,3.239,4.975,6.292,4.975  c3.053,0,5.613-2.127,6.292-4.975h6.352c0.008,0,0.015,0.001,0.02,0c0.829,0,1.5-0.672,1.5-1.5c0-0.318-0.099-0.613-0.268-0.855  L61.538,55.831z M50,34.151c0.916,0,1.662,0.745,1.662,1.66c0,0.917-0.746,1.662-1.662,1.662s-1.661-0.746-1.661-1.662  C48.339,34.896,49.084,34.151,50,34.151z M41.462,49.012c0-4.708,3.83-8.538,8.537-8.538c4.708,0,8.539,3.83,8.539,8.538v5.663  H41.462V49.012z M50,65.024c-1.376,0-2.558-0.811-3.12-1.975h6.24C52.559,64.214,51.377,65.024,50,65.024z M39.75,60.05l1.151-2.375  h18.197l1.15,2.375H39.75z"></path></svg>