<svg xmlns="http://www.w3.org/2000/svg" xmlns:xlink="http://www.w3.org/1999/xlink" version="1.1" x="0px" y="0px" viewBox="0 0 100 100" enable-background="new 0 0 100 100" xml:space="preserve"><path d="M36.005,33.697c-2.437,0-4.419,1.982-4.419,4.419s1.982,4.419,4.419,4.419c2.438,0,4.42-1.982,4.42-4.419  S38.442,33.697,36.005,33.697z M36.005,39.535c-0.782,0-1.419-0.637-1.419-1.419s0.637-1.419,1.419-1.419  c0.783,0,1.42,0.637,1.42,1.419S36.788,39.535,36.005,39.535z M36.005,57.463c-2.437,0-4.419,1.982-4.419,4.42  s1.982,4.42,4.419,4.42c2.438,0,4.42-1.982,4.42-4.42S38.442,57.463,36.005,57.463z M36.005,63.303c-0.782,0-1.419-0.637-1.419-1.42  s0.637-1.42,1.419-1.42c0.783,0,1.42,0.637,1.42,1.42S36.788,63.303,36.005,63.303z M36.005,45.572  c-2.437,0-4.419,1.982-4.419,4.419s1.982,4.419,4.419,4.419c2.438,0,4.42-1.982,4.42-4.419S38.442,45.572,36.005,45.572z   M36.005,51.41c-0.782,0-1.419-0.637-1.419-1.419s0.637-1.419,1.419-1.419c0.783,0,1.42,0.637,1.42,1.419S36.788,51.41,36.005,51.41  z M44.978,39.616h21.938c0.828,0,1.5-0.672,1.5-1.5s-0.672-1.5-1.5-1.5H44.978c-0.828,0-1.5,0.672-1.5,1.5  S44.149,39.616,44.978,39.616z M66.915,48.491H44.978c-0.828,0-1.5,0.672-1.5,1.5s0.672,1.5,1.5,1.5h21.938  c0.828,0,1.5-0.672,1.5-1.5S67.743,48.491,66.915,48.491z M66.915,60.383H44.978c-0.828,0-1.5,0.672-1.5,1.5s0.672,1.5,1.5,1.5  h21.938c0.828,0,1.5-0.672,1.5-1.5S67.743,60.383,66.915,60.383z"></path></svg>