<svg xmlns="http://www.w3.org/2000/svg" xmlns:xlink="http://www.w3.org/1999/xlink" version="1.1" x="0px" y="0px" viewBox="0 0 100 100" enable-background="new 0 0 100 100" xml:space="preserve"><path d="M66.774,49.19c0-2.451-1.652-4.503-3.895-5.158v-8.457c0-0.545-0.295-1.047-0.771-1.311  C61.633,34,61.053,34.013,60.589,34.3l-9.676,6.005H42.11c-4.898,0-8.885,3.986-8.885,8.885c0,4.533,3.416,8.279,7.809,8.812  l2.072,5.691c0.486,1.334,1.766,2.23,3.186,2.23l0,0c0.395,0,0.784-0.068,1.16-0.205c1.756-0.641,2.663-2.59,2.023-4.344  l-1.201-3.301h2.639l9.676,6.004c0.242,0.15,0.517,0.227,0.791,0.227c0.251,0,0.502-0.063,0.729-0.189  c0.476-0.266,0.771-0.766,0.771-1.311v-8.457C65.122,53.691,66.774,51.641,66.774,49.19z M43.61,55.074V43.305h6.23v11.769H43.61z   M36.226,49.19c0-2.726,1.866-5.018,4.385-5.684v11.367C38.092,54.207,36.226,51.916,36.226,49.19z M46.657,62.402  c0.072,0.201-0.032,0.424-0.232,0.498c-0.044,0.016-0.088,0.023-0.133,0.023c-0.137,0-0.303-0.08-0.367-0.256l-1.672-4.594h0.829  L46.657,62.402z M59.88,60.107l-7.039-4.367V42.639l7.039-4.368V60.107z M62.88,51.043v-3.706c0.541,0.439,0.895,1.103,0.895,1.853  S63.421,50.604,62.88,51.043z"></path></svg>