<svg xmlns="http://www.w3.org/2000/svg" xmlns:xlink="http://www.w3.org/1999/xlink" version="1.1" x="0px" y="0px" viewBox="0 0 100 100" enable-background="new 0 0 100 100" xml:space="preserve"><path d="M60.776,44.286c-0.585,0.586-0.585,1.535,0.002,2.121c0.743,0.742,1.152,1.729,1.152,2.779s-0.409,2.037-1.152,2.779  c-0.587,0.586-0.587,1.535-0.002,2.121c0.293,0.294,0.678,0.44,1.062,0.44s0.768-0.146,1.06-0.438  c1.312-1.31,2.033-3.051,2.033-4.902s-0.722-3.593-2.033-4.902C62.312,43.699,61.362,43.698,60.776,44.286z M67.596,38.527  c-0.586-0.586-1.535-0.586-2.121,0s-0.586,1.536,0,2.121c4.709,4.708,4.709,12.37,0,17.081c-0.586,0.586-0.586,1.536,0,2.121  c0.293,0.293,0.677,0.439,1.061,0.439s0.768-0.146,1.061-0.439C73.475,53.97,73.475,44.404,67.596,38.527z M56.879,34.265  c-0.477-0.264-1.057-0.251-1.521,0.036l-9.675,6.005h-8.803c-4.899,0-8.885,3.986-8.885,8.885c0,4.533,3.416,8.278,7.808,8.812  l2.071,5.692c0.486,1.334,1.768,2.23,3.186,2.23h0.001c0.396,0,0.784-0.069,1.16-0.205c1.755-0.642,2.663-2.591,2.023-4.344  l-1.201-3.302h2.64l9.675,6.005c0.242,0.15,0.517,0.226,0.791,0.226c0.251,0,0.502-0.063,0.729-0.189  c0.476-0.265,0.771-0.766,0.771-1.311V35.575C57.649,35.03,57.354,34.528,56.879,34.265z M35.381,54.873  c-2.52-0.666-4.385-2.957-4.385-5.683s1.865-5.018,4.385-5.684V54.873z M41.193,62.9c-0.043,0.017-0.088,0.024-0.132,0.024  c-0.136,0-0.303-0.08-0.367-0.257l-1.672-4.594h0.829l1.574,4.329C41.5,62.604,41.395,62.827,41.193,62.9z M44.611,55.074h-6.23  V43.306h6.23V55.074z M54.649,60.108l-7.038-4.368V42.64l7.038-4.368V60.108z"></path></svg>