<svg xmlns="http://www.w3.org/2000/svg" xmlns:xlink="http://www.w3.org/1999/xlink" version="1.1" x="0px" y="0px" viewBox="0 0 100 100" enable-background="new 0 0 100 100" xml:space="preserve"><path d="M50,45.119c0.412,0,0.805,0.065,1.188,0.159l2.331-2.331c-1.062-0.525-2.254-0.828-3.519-0.828  c-4.374,0-7.933,3.535-7.933,7.881c0,4.345,3.559,7.879,7.933,7.879s7.933-3.534,7.933-7.879c0-1.274-0.312-2.475-0.855-3.541  l-2.32,2.32c0.104,0.393,0.176,0.797,0.176,1.221c0,2.69-2.213,4.879-4.933,4.879S45.067,52.69,45.067,50  C45.067,47.309,47.28,45.119,50,45.119z M59.543,36.923c-2.681-1.962-5.974-3.136-9.543-3.136c-8.939,0-16.213,7.273-16.213,16.213  S41.061,66.213,50,66.213S66.212,58.939,66.212,50c0-3.568-1.173-6.861-3.134-9.542l-2.141,2.14  c1.435,2.113,2.274,4.661,2.274,7.402c0,7.285-5.927,13.213-13.212,13.213S36.787,57.285,36.787,50S42.715,36.787,50,36.787  c2.741,0,5.29,0.84,7.403,2.275L59.543,36.923z M70.651,36.862c0.003,0.055,0.014,0.107,0.014,0.163  c0,1.191-0.839,2.188-1.957,2.437C70.471,42.58,71.489,46.17,71.489,50c0,11.85-9.64,21.489-21.489,21.489  c-11.849,0-21.489-9.64-21.489-21.489S38.151,28.511,50,28.511c3.83,0,7.422,1.019,10.539,2.782  c0.249-1.118,1.244-1.957,2.437-1.957c0.056,0,0.109,0.01,0.164,0.014c-3.8-2.426-8.307-3.839-13.14-3.839  c-13.503,0-24.489,10.985-24.489,24.489S36.497,74.489,50,74.489c13.504,0,24.489-10.985,24.489-24.489  C74.489,45.167,73.077,40.662,70.651,36.862z M61.476,31.836v4.568L48.94,48.939c-0.586,0.586-0.586,1.535,0,2.121  c0.293,0.293,0.677,0.439,1.061,0.439s0.768-0.146,1.061-0.439l12.535-12.535h4.568c0.828,0,1.5-0.672,1.5-1.5s-0.672-1.5-1.5-1.5  h-1.568l1.046-1.046h4.568c0.828,0,1.5-0.672,1.5-1.5s-0.672-1.5-1.5-1.5h-1.568l0.813-0.813c0.586-0.586,0.586-1.535,0-2.121  c-0.293-0.293-0.677-0.439-1.061-0.439s-0.768,0.146-1.061,0.439l-0.813,0.813v-1.569c0-0.828-0.672-1.5-1.5-1.5s-1.5,0.672-1.5,1.5  v4.569l-1.046,1.046v-1.568c0-0.828-0.672-1.5-1.5-1.5S61.476,31.008,61.476,31.836z"></path></svg>