<svg xmlns="http://www.w3.org/2000/svg" xmlns:xlink="http://www.w3.org/1999/xlink" version="1.1" x="0px" y="0px" viewBox="0 0 100 100" enable-background="new 0 0 100 100" xml:space="preserve"><path d="M64.677,35.633h-3.613v-2.106c0-0.829-0.672-1.5-1.5-1.5s-1.5,0.671-1.5,1.5v2.106h-6.563v-2.106c0-0.829-0.672-1.5-1.5-1.5  s-1.5,0.671-1.5,1.5v2.106h-6.563v-2.106c0-0.829-0.672-1.5-1.5-1.5s-1.5,0.671-1.5,1.5v2.106h-3.615c-0.828,0-1.5,0.671-1.5,1.5  v29.341c0,0.828,0.672,1.5,1.5,1.5h29.354c0.828,0,1.5-0.672,1.5-1.5V37.133C66.177,36.304,65.505,35.633,64.677,35.633z   M63.177,64.974H36.823V45.063h26.354V64.974z M63.177,42.063H36.823v-3.43h2.115v0.663c0,0.829,0.672,1.5,1.5,1.5  s1.5-0.671,1.5-1.5v-0.663h6.563v0.663c0,0.829,0.672,1.5,1.5,1.5s1.5-0.671,1.5-1.5v-0.663h6.563v0.663c0,0.829,0.672,1.5,1.5,1.5  s1.5-0.671,1.5-1.5v-0.663h2.113V42.063z M48.591,50.79h2.52c0.828,0,1.5-0.672,1.5-1.5s-0.672-1.5-1.5-1.5h-2.52  c-0.828,0-1.5,0.672-1.5,1.5S47.763,50.79,48.591,50.79z M57.042,50.79h2.521c0.828,0,1.5-0.672,1.5-1.5s-0.672-1.5-1.5-1.5h-2.521  c-0.828,0-1.5,0.672-1.5,1.5S56.214,50.79,57.042,50.79z M40.438,50.79h2.52c0.828,0,1.5-0.672,1.5-1.5s-0.672-1.5-1.5-1.5h-2.52  c-0.828,0-1.5,0.672-1.5,1.5S39.61,50.79,40.438,50.79z M40.438,56.518h2.52c0.828,0,1.5-0.672,1.5-1.5s-0.672-1.5-1.5-1.5h-2.52  c-0.828,0-1.5,0.672-1.5,1.5S39.61,56.518,40.438,56.518z M57.042,56.518h2.521c0.828,0,1.5-0.672,1.5-1.5s-0.672-1.5-1.5-1.5  h-2.521c-0.828,0-1.5,0.672-1.5,1.5S56.214,56.518,57.042,56.518z M48.591,56.518h2.52c0.828,0,1.5-0.672,1.5-1.5  s-0.672-1.5-1.5-1.5h-2.52c-0.828,0-1.5,0.672-1.5,1.5S47.763,56.518,48.591,56.518z M48.591,62.246h2.52c0.828,0,1.5-0.672,1.5-1.5  s-0.672-1.5-1.5-1.5h-2.52c-0.828,0-1.5,0.672-1.5,1.5S47.763,62.246,48.591,62.246z M59.563,59.246h-2.52  c-0.828,0-1.5,0.672-1.5,1.5s0.672,1.5,1.5,1.5h2.52c0.828,0,1.5-0.672,1.5-1.5S60.391,59.246,59.563,59.246z M40.438,62.246h2.521  c0.828,0,1.5-0.672,1.5-1.5s-0.672-1.5-1.5-1.5h-2.521c-0.828,0-1.5,0.672-1.5,1.5S39.61,62.246,40.438,62.246z"></path></svg>