<svg xmlns="http://www.w3.org/2000/svg" xmlns:xlink="http://www.w3.org/1999/xlink" version="1.1" x="0px" y="0px" viewBox="0 0 100 100" enable-background="new 0 0 100 100" xml:space="preserve"><path d="M50,25.514c-13.502,0-24.486,10.985-24.486,24.486c0,13.502,10.984,24.486,24.486,24.486S74.486,63.502,74.486,50  S63.502,25.514,50,25.514z M50,71.486c-11.848,0-21.486-9.641-21.486-21.487c0-11.848,9.639-21.485,21.486-21.485  c11.848,0,21.486,9.638,21.486,21.486C71.486,61.848,61.848,71.486,50,71.486z M58.421,43.802l-9.214,9.213l-5.439-5.438  c-0.586-0.586-1.536-0.586-2.121,0c-0.586,0.586-0.586,1.536,0,2.121l6.5,6.499c0.293,0.293,0.677,0.439,1.061,0.439  s0.768-0.146,1.061-0.439l10.274-10.274c0.586-0.585,0.586-1.535,0-2.121S59.007,43.216,58.421,43.802z"></path></svg>