<svg xmlns="http://www.w3.org/2000/svg" xmlns:xlink="http://www.w3.org/1999/xlink" version="1.1" x="0px" y="0px" viewBox="0 0 100 100" enable-background="new 0 0 100 100" xml:space="preserve"><path d="M50,25.514c-13.502,0-24.486,10.985-24.486,24.486c0,13.502,10.984,24.486,24.486,24.486S74.486,63.502,74.486,50  S63.502,25.514,50,25.514z M60.542,45.923L50.268,56.197c-0.293,0.293-0.677,0.439-1.061,0.439s-0.768-0.146-1.061-0.439l-6.5-6.499  c-0.586-0.585-0.586-1.535,0-2.121c0.585-0.586,1.535-0.586,2.121,0l5.439,5.438l9.214-9.213c0.586-0.586,1.535-0.586,2.121,0  S61.128,45.338,60.542,45.923z"></path></svg>