<svg xmlns="http://www.w3.org/2000/svg" xmlns:xlink="http://www.w3.org/1999/xlink" version="1.1" x="0px" y="0px" viewBox="0 0 100 100" enable-background="new 0 0 100 100" xml:space="preserve"><path d="M49.999,29.954c-11.053,0-20.045,8.993-20.045,20.046c0,11.054,8.992,20.047,20.045,20.047  c11.055,0,20.048-8.993,20.048-20.047C70.047,38.946,61.054,29.954,49.999,29.954z M49.999,67.047  c-9.398,0-17.045-7.647-17.045-17.047c0-9.399,7.646-17.046,17.045-17.046c9.401,0,17.048,7.647,17.048,17.046  C67.047,59.399,59.399,67.047,49.999,67.047z M60.633,47.104l-5.885-5.885c-0.586-0.586-1.535-0.586-2.121,0  c-0.586,0.585-0.586,1.536,0,2.121l3.318,3.318H45.758c-3.768,0-6.833,3.066-6.833,6.834v2.395c0,0.828,0.671,1.5,1.5,1.5  s1.5-0.672,1.5-1.5v-2.395c0-2.114,1.719-3.834,3.833-3.834h10.204l-3.319,3.321c-0.586,0.586-0.586,1.536,0,2.121  c0.293,0.293,0.677,0.439,1.061,0.439s0.768-0.146,1.061-0.439l5.871-5.874c0.293-0.292,0.439-0.677,0.439-1.061  c0-0.384-0.146-0.768-0.439-1.061C60.635,47.105,60.634,47.105,60.633,47.104z"></path></svg>