<svg xmlns="http://www.w3.org/2000/svg" xmlns:xlink="http://www.w3.org/1999/xlink" version="1.1" x="0px" y="0px" viewBox="0 0 100 100" enable-background="new 0 0 100 100" xml:space="preserve"><path d="M72.987,48.5c-0.828,0-1.5,0.671-1.5,1.5v21.487H28.513V50c0-0.829-0.671-1.5-1.5-1.5s-1.5,0.671-1.5,1.5v22.987  c0,0.828,0.671,1.5,1.5,1.5h45.975c0.828,0,1.5-0.672,1.5-1.5V50C74.487,49.171,73.815,48.5,72.987,48.5z M61.553,48.47  c-0.384,0-0.768,0.146-1.061,0.439l-8.963,8.963v-30.86c0-0.828-0.672-1.5-1.5-1.5s-1.5,0.672-1.5,1.5v30.86l-8.992-8.993  c-0.293-0.293-0.677-0.439-1.061-0.439s-0.768,0.146-1.061,0.439c-0.586,0.585-0.586,1.535,0,2.122l11.552,11.552  c0.14,0.14,0.307,0.251,0.491,0.327c0.008,0.003,0.016,0.004,0.023,0.007c0.169,0.067,0.353,0.106,0.547,0.106  s0.378-0.039,0.548-0.106c0.007-0.003,0.015-0.004,0.021-0.007c0.186-0.076,0.354-0.188,0.493-0.328l11.521-11.521  c0.586-0.586,0.586-1.536,0-2.122C62.32,48.617,61.937,48.47,61.553,48.47z"></path></svg>