<svg xmlns="http://www.w3.org/2000/svg" xmlns:xlink="http://www.w3.org/1999/xlink" version="1.1" x="0px" y="0px" viewBox="0 0 100 100" enable-background="new 0 0 100 100" xml:space="preserve"><path d="M65.751,52.208c0-0.039-0.002-0.078-0.005-0.117l-0.995-12.615c-0.035-2.406-2.003-4.352-4.416-4.352H44.158  c-0.206-0.58-0.756-1-1.408-1h-7c-0.829,0-1.5,0.672-1.5,1.5v20.5c0,0.83,0.671,1.5,1.5,1.5h7c0.652,0,1.201-0.418,1.408-1h1.488  c0.347,0,0.604,0.117,0.861,0.391c1.295,1.379,1.482,5.49,1.37,7.266c-0.026,0.414,0.12,0.82,0.403,1.121  c0.283,0.303,0.68,0.475,1.094,0.475c2.512,0,4.384-0.826,5.564-2.455c1.511-2.088,1.397-4.912,1.08-6.795h5.313  C63.77,56.626,65.75,54.644,65.751,52.208z M37.249,37.126h4v17.5h-4V37.126z M62.748,52.257c-0.025,0.758-0.65,1.367-1.415,1.367  h-7.21c-0.482,0-0.934,0.23-1.215,0.621c-0.282,0.391-0.36,0.891-0.21,1.348c0.362,1.115,1.034,4.383-0.194,6.072  c-0.365,0.504-0.895,0.846-1.605,1.035c-0.045-2.199-0.412-5.83-2.205-7.738c-0.82-0.875-1.875-1.336-3.049-1.336h-1.396v-15.5  h16.085c0.781,0,1.416,0.635,1.416,1.416c0,0.039,0.002,0.078,0.005,0.117L62.748,52.257z"></path></svg>