<svg xmlns="http://www.w3.org/2000/svg" xmlns:xlink="http://www.w3.org/1999/xlink" version="1.1" x="0px" y="0px" viewBox="0 0 100 100" enable-background="new 0 0 100 100" xml:space="preserve"><path d="M51.022,25.913c-0.576-0.536-1.469-0.536-2.045,0C48.257,26.584,31.336,42.5,31.336,55.824  c0,10.291,8.372,18.664,18.664,18.664c10.291,0,18.664-8.373,18.664-18.664C68.664,42.5,51.743,26.584,51.022,25.913z M50,69.25  c-7.351,0-13.331-6.115-13.331-13.633c0-0.828,0.672-1.5,1.5-1.5s1.5,0.672,1.5,1.5c0,5.863,4.635,10.633,10.331,10.633  c0.828,0,1.5,0.672,1.5,1.5S50.828,69.25,50,69.25z"></path></svg>