<svg xmlns="http://www.w3.org/2000/svg" xmlns:xlink="http://www.w3.org/1999/xlink" version="1.1" x="0px" y="0px" viewBox="0 0 100 100" enable-background="new 0 0 100 100" xml:space="preserve"><path d="M67.753,35.851c-0.013-0.065-0.035-0.125-0.057-0.187c-0.011-0.031-0.017-0.063-0.028-0.093  c-0.029-0.069-0.066-0.133-0.105-0.196c-0.012-0.02-0.02-0.042-0.033-0.062c-0.055-0.082-0.117-0.158-0.187-0.228l-9.141-9.14  c-0.069-0.07-0.146-0.132-0.228-0.187c-0.018-0.012-0.037-0.019-0.055-0.03c-0.065-0.04-0.132-0.078-0.203-0.108  c-0.027-0.012-0.057-0.017-0.085-0.026c-0.063-0.022-0.127-0.046-0.195-0.06c-0.097-0.02-0.195-0.03-0.296-0.03H31.717  c-0.829,0-1.5,0.671-1.5,1.5v45.988c0,0.828,0.671,1.5,1.5,1.5h34.566c0.828,0,1.5-0.672,1.5-1.5V36.147  C67.783,36.047,67.773,35.948,67.753,35.851z M58.641,30.627l4.021,4.021h-4.021V30.627z M64.783,71.494H33.217V28.506h22.424v7.642  c0,0.829,0.672,1.5,1.5,1.5h7.643V71.494z M50.875,61.375c-0.829,0-1.5,0.672-1.5,1.5s0.671,1.5,1.5,1.5h7.266  c0.828,0,1.5-0.672,1.5-1.5s-0.672-1.5-1.5-1.5H50.875z M50.345,40.31l-2.827,4.363L39.66,56.804  c-0.012,0.019-0.014,0.042-0.025,0.062c-0.073,0.124-0.127,0.257-0.162,0.397c-0.01,0.04-0.016,0.077-0.022,0.118  c-0.024,0.145-0.029,0.294-0.008,0.444c0.002,0.013-0.002,0.025,0,0.038l0.526,5.164c0.046,0.456,0.299,0.865,0.686,1.112  c0.244,0.155,0.524,0.235,0.807,0.235c0.165,0,0.331-0.027,0.491-0.083l4.843-1.677c0.225-0.061,0.422-0.191,0.599-0.351  c0.151-0.122,0.276-0.271,0.37-0.44l7.754-11.97c0.008-0.012,0.012-0.024,0.019-0.036l2.805-4.331  c0.217-0.334,0.291-0.74,0.208-1.129c-0.083-0.389-0.317-0.729-0.651-0.945l-5.478-3.548C51.726,39.416,50.796,39.613,50.345,40.31z   M45.605,59.637c-1.273-0.033-2.406-0.773-2.993-1.872l6.587-10.169l2.963,1.919L45.605,59.637z M53.812,46.962l-2.96-1.917  l1.195-1.846l2.96,1.917L53.812,46.962z"></path></svg>