<svg xmlns="http://www.w3.org/2000/svg" xmlns:xlink="http://www.w3.org/1999/xlink" version="1.1" x="0px" y="0px" viewBox="0 0 100 100" enable-background="new 0 0 100 100" xml:space="preserve"><path fill="#000000" d="M74.338,65.811c0.021-0.045,0.04-0.09,0.057-0.136c0.018-0.048,0.032-0.095,0.045-0.144  c0.011-0.045,0.02-0.09,0.026-0.135c0.009-0.054,0.014-0.107,0.017-0.161c0.001-0.023,0.007-0.046,0.007-0.069V34.834  c0-0.013-0.003-0.025-0.004-0.038c-0.001-0.056-0.009-0.112-0.017-0.168c-0.006-0.043-0.01-0.086-0.02-0.128  c-0.012-0.048-0.028-0.095-0.045-0.143c-0.016-0.047-0.029-0.094-0.05-0.139c-0.018-0.039-0.04-0.076-0.062-0.114  c-0.028-0.05-0.056-0.099-0.089-0.145c-0.007-0.01-0.012-0.021-0.02-0.032c-0.019-0.025-0.042-0.043-0.062-0.067  c-0.036-0.042-0.072-0.083-0.111-0.12c-0.036-0.033-0.074-0.063-0.112-0.092c-0.038-0.029-0.075-0.058-0.116-0.083  c-0.043-0.027-0.089-0.05-0.135-0.073c-0.041-0.02-0.08-0.04-0.123-0.056c-0.05-0.019-0.101-0.034-0.152-0.047  c-0.042-0.011-0.083-0.022-0.125-0.03c-0.059-0.01-0.118-0.014-0.178-0.018c-0.027-0.001-0.053-0.008-0.081-0.008H27.012  c-0.035,0-0.067,0.008-0.102,0.01c-0.049,0.003-0.098,0.006-0.147,0.015c-0.051,0.008-0.101,0.021-0.15,0.035  c-0.044,0.012-0.087,0.024-0.13,0.04c-0.049,0.019-0.094,0.041-0.141,0.063c-0.041,0.021-0.081,0.042-0.121,0.066  c-0.043,0.027-0.083,0.057-0.124,0.088c-0.037,0.028-0.073,0.057-0.107,0.089c-0.04,0.037-0.075,0.077-0.11,0.119  c-0.021,0.024-0.045,0.043-0.064,0.068c-0.008,0.011-0.013,0.023-0.021,0.034c-0.032,0.044-0.059,0.093-0.086,0.141  c-0.022,0.039-0.045,0.077-0.063,0.117c-0.021,0.045-0.035,0.092-0.051,0.14c-0.016,0.046-0.032,0.092-0.044,0.14  c-0.009,0.043-0.014,0.088-0.02,0.133c-0.008,0.055-0.015,0.108-0.017,0.163c0,0.013-0.004,0.026-0.004,0.04v30.332  c0,0.024,0.006,0.047,0.007,0.07c0.003,0.054,0.008,0.105,0.016,0.159c0.007,0.046,0.016,0.091,0.028,0.136  c0.012,0.049,0.027,0.096,0.044,0.144c0.017,0.046,0.035,0.091,0.056,0.135c0.021,0.043,0.043,0.085,0.068,0.126  c0.026,0.045,0.055,0.087,0.086,0.128c0.015,0.021,0.025,0.042,0.042,0.062c0.013,0.016,0.031,0.027,0.044,0.043  c0.044,0.049,0.091,0.093,0.142,0.135c0.031,0.027,0.062,0.055,0.094,0.078c0.054,0.039,0.113,0.072,0.172,0.104  c0.032,0.018,0.062,0.037,0.095,0.052c0.072,0.032,0.149,0.055,0.227,0.075c0.023,0.006,0.044,0.016,0.067,0.021  c0.101,0.021,0.205,0.033,0.313,0.033h45.978c0.107,0,0.212-0.012,0.313-0.033c0.024-0.006,0.046-0.016,0.069-0.022  c0.077-0.021,0.152-0.042,0.224-0.074c0.034-0.015,0.065-0.036,0.099-0.054c0.059-0.031,0.115-0.063,0.169-0.102  c0.033-0.023,0.063-0.051,0.095-0.078c0.051-0.043,0.098-0.088,0.143-0.137c0.014-0.015,0.029-0.025,0.043-0.041  c0.016-0.019,0.025-0.04,0.04-0.06c0.032-0.042,0.062-0.086,0.089-0.132C74.296,65.894,74.318,65.853,74.338,65.811z M28.512,37.853  l15.181,11.501L28.512,61.97V37.853z M50,50.368L31.476,36.334h37.049L50,50.368z M46.147,51.213l2.946,2.232  c0.016,0.012,0.033,0.015,0.049,0.025c0.103,0.072,0.212,0.129,0.328,0.173c0.038,0.015,0.074,0.028,0.113,0.04  c0.134,0.039,0.271,0.064,0.41,0.065c0.002,0,0.003,0.001,0.005,0.001H50h0.001c0.001,0,0.003-0.001,0.005-0.001  c0.14-0.001,0.276-0.026,0.41-0.065c0.039-0.012,0.076-0.025,0.114-0.04c0.114-0.044,0.222-0.1,0.323-0.171  c0.018-0.012,0.037-0.016,0.053-0.027l2.946-2.232l14.985,12.453H31.163L46.147,51.213z M56.309,49.353l15.181-11.5v24.116  L56.309,49.353z"></path></svg>