<svg xmlns="http://www.w3.org/2000/svg" xmlns:xlink="http://www.w3.org/1999/xlink" version="1.1" x="0px" y="0px" viewBox="0 0 100 100" enable-background="new 0 0 100 100" xml:space="preserve"><path fill="#000000" d="M72.989,33.334H27.012c-0.829,0-1.5,0.671-1.5,1.5v30.332c0,0.828,0.671,1.5,1.5,1.5h45.978  c0.828,0,1.5-0.672,1.5-1.5V34.834C74.489,34.005,73.817,33.334,72.989,33.334z M71.489,36.334v4.567L50,51.494L28.512,40.901  v-4.567H71.489z M28.512,63.666V44.245l20.825,10.268c0.056,0.027,0.115,0.041,0.173,0.062c0.039,0.014,0.075,0.03,0.115,0.041  c0.124,0.032,0.249,0.052,0.374,0.052H50h0.001c0.125,0,0.25-0.02,0.374-0.052c0.04-0.011,0.076-0.027,0.115-0.041  c0.058-0.02,0.117-0.033,0.173-0.062l20.826-10.268v19.421H28.512z"></path></svg>