<svg xmlns="http://www.w3.org/2000/svg" xmlns:xlink="http://www.w3.org/1999/xlink" version="1.1" x="0px" y="0px" viewBox="0 0 100 100" enable-background="new 0 0 100 100" xml:space="preserve"><path d="M68.505,32.992c0-0.195-0.048-0.377-0.115-0.548c-0.004-0.009-0.007-0.018-0.011-0.027c-0.077-0.182-0.183-0.345-0.32-0.481  c-0.001-0.001-0.001-0.002-0.002-0.003c-0.002-0.002-0.004-0.002-0.006-0.004c-0.065-0.064-0.131-0.128-0.207-0.179  c-0.069-0.047-0.15-0.074-0.228-0.109c-0.031-0.014-0.06-0.032-0.092-0.044c-0.163-0.061-0.335-0.103-0.52-0.103H54.863  c-0.828,0-1.5,0.671-1.5,1.5s0.672,1.5,1.5,1.5h8.512L52.581,45.288c-0.586,0.586-0.586,1.536,0,2.121  c0.293,0.293,0.677,0.439,1.061,0.439s0.768-0.146,1.061-0.439l10.804-10.804l0.002,8.535c0,0.828,0.672,1.5,1.5,1.5  c0.829,0,1.5-0.672,1.5-1.5L68.505,32.992z M45.297,52.592L34.494,63.397l-0.001-8.535c0-0.829-0.672-1.5-1.5-1.5  c-0.829,0-1.5,0.672-1.5,1.5l0.002,12.146c0,0.104,0.011,0.205,0.03,0.303c0.014,0.069,0.053,0.128,0.076,0.193  c0.014,0.041,0.028,0.079,0.046,0.118c0.065,0.143,0.15,0.27,0.255,0.384c0.017,0.02,0.022,0.044,0.041,0.062  c0.009,0.009,0.021,0.011,0.03,0.02c0.125,0.119,0.268,0.215,0.429,0.285c0.016,0.007,0.03,0.021,0.046,0.026  c0.169,0.067,0.352,0.108,0.545,0.108h12.143c0.829,0,1.5-0.672,1.5-1.5s-0.671-1.5-1.5-1.5h-8.512l10.793-10.796  c0.586-0.586,0.586-1.535,0-2.121S45.882,52.006,45.297,52.592z"></path></svg>