<svg xmlns="http://www.w3.org/2000/svg" xmlns:xlink="http://www.w3.org/1999/xlink" version="1.1" x="0px" y="0px" viewBox="0 0 100 100" enable-background="new 0 0 100 100" xml:space="preserve"><path d="M67.243,25.513h-34.48c-0.001,0-0.002,0-0.003,0s-0.002,0-0.003,0c-0.829,0-1.5,0.671-1.5,1.5v45.975  c0,0.514,0.263,0.991,0.696,1.267c0.433,0.276,0.979,0.31,1.442,0.091l16.602-7.814l16.602,7.814  c0.203,0.096,0.421,0.143,0.639,0.143c0.28,0,0.56-0.078,0.804-0.233c0.434-0.275,0.696-0.753,0.696-1.267V27.071  c0.001-0.02,0.006-0.038,0.006-0.058C68.743,26.185,68.071,25.513,67.243,25.513z M65.737,70.624l-15.102-7.108  c-0.404-0.189-0.873-0.189-1.277,0l-15.102,7.108V28.513h31.48V70.624z M44.262,49.235l-0.84,4.897  c-0.097,0.563,0.135,1.131,0.597,1.467s1.075,0.381,1.58,0.115l4.398-2.314l4.397,2.313c0.22,0.117,0.459,0.174,0.698,0.174  c0.311,0,0.62-0.098,0.882-0.287c0.462-0.336,0.693-0.904,0.597-1.467l-0.84-4.897l3.559-3.468c0.409-0.398,0.556-0.995,0.38-1.538  c-0.177-0.543-0.646-0.939-1.211-1.021l-4.919-0.715l-2.197-4.456c-0.253-0.512-0.774-0.836-1.346-0.836  c-0.571,0-1.092,0.324-1.345,0.836l-2.199,4.456l-4.918,0.715c-0.565,0.082-1.034,0.478-1.211,1.021  c-0.176,0.543-0.029,1.139,0.38,1.538L44.262,49.235z M47.665,45.35c0.488-0.071,0.911-0.378,1.129-0.821l1.202-2.437l1.202,2.437  c0.219,0.443,0.642,0.75,1.13,0.821l2.691,0.391l-1.946,1.897c-0.354,0.345-0.515,0.841-0.432,1.328l0.459,2.679l-2.405-1.266  c-0.438-0.229-0.959-0.229-1.396,0l-2.406,1.266l0.459-2.679c0.083-0.487-0.078-0.983-0.432-1.328l-1.946-1.897L47.665,45.35z"></path></svg>