<svg xmlns="http://www.w3.org/2000/svg" xmlns:xlink="http://www.w3.org/1999/xlink" version="1.1" x="0px" y="0px" viewBox="0 0 100 100" enable-background="new 0 0 100 100" xml:space="preserve"><g><path d="M45.433,72.25c-0.172,0-0.348-0.029-0.518-0.092c-0.675-0.249-1.079-0.942-0.962-1.652l2.568-15.583h-6.497   c-0.541,0-1.04-0.291-1.306-0.762s-0.258-1.048,0.021-1.512l14.543-24.173c0.37-0.617,1.127-0.883,1.803-0.634   s1.079,0.941,0.963,1.651l-2.568,15.584h6.497c0.541,0,1.04,0.291,1.306,0.762c0.267,0.471,0.259,1.048-0.021,1.512L46.719,71.523   C46.441,71.985,45.947,72.25,45.433,72.25z M42.677,51.923h5.612c0.44,0,0.858,0.193,1.144,0.529s0.408,0.78,0.336,1.215   l-1.582,9.596l9.136-15.185h-5.611c-0.44,0-0.858-0.193-1.144-0.529s-0.408-0.78-0.336-1.214l1.582-9.597L42.677,51.923z"></path></g></svg>