<svg xmlns="http://www.w3.org/2000/svg" xmlns:xlink="http://www.w3.org/1999/xlink" version="1.1" x="0px" y="0px" viewBox="0 0 100 100" enable-background="new 0 0 100 100" xml:space="preserve"><path d="M72.989,38.278h-8.365V33.54c0-0.828-0.672-1.5-1.5-1.5H41.247l-2.561-2.561c-0.281-0.281-0.663-0.439-1.061-0.439H27.011  c-0.829,0-1.5,0.672-1.5,1.5v33.988c0,3.547,2.886,6.432,6.433,6.432h36.113c3.547,0,6.433-2.885,6.433-6.432v-24.75  C74.489,38.95,73.817,38.278,72.989,38.278z M28.511,64.528V32.04h8.494l2.561,2.561c0.281,0.281,0.663,0.439,1.061,0.439h20.998  v3.238H36.876c-0.829,0-1.5,0.672-1.5,1.5v24.75c0,1.893-1.54,3.432-3.433,3.432S28.511,66.421,28.511,64.528z M68.057,67.96H37.375  c0.631-0.994,1.001-2.169,1.001-3.432v-23.25h33.113v23.25C71.489,66.421,69.949,67.96,68.057,67.96z"></path></svg>