<svg xmlns="http://www.w3.org/2000/svg" xmlns:xlink="http://www.w3.org/1999/xlink" version="1.1" x="0px" y="0px" viewBox="0 0 100 100" enable-background="new 0 0 100 100" xml:space="preserve"><path d="M50,40.408c-5.289,0-9.592,4.303-9.592,9.592s4.303,9.593,9.592,9.593s9.593-4.304,9.593-9.593S55.289,40.408,50,40.408z   M50,56.593c-3.635,0-6.592-2.957-6.592-6.593c0-3.635,2.958-6.592,6.592-6.592c3.636,0,6.593,2.958,6.593,6.592  C56.593,53.636,53.636,56.593,50,56.593z M72.987,44.391h-3.435c-0.423-1.475-1.013-2.896-1.763-4.245l2.432-2.432  c0.586-0.585,0.586-1.535,0-2.121l-5.813-5.813c-0.281-0.281-0.663-0.439-1.061-0.439s-0.779,0.158-1.061,0.439l-2.433,2.432  c-1.35-0.751-2.771-1.341-4.245-1.764v-3.434c0-0.829-0.672-1.5-1.5-1.5h-8.22c-0.829,0-1.5,0.671-1.5,1.5v3.434  c-1.475,0.423-2.896,1.013-4.246,1.764l-2.432-2.432c-0.563-0.563-1.559-0.563-2.121,0l-5.812,5.812  c-0.586,0.586-0.586,1.536,0,2.121l2.432,2.432c-0.75,1.35-1.341,2.771-1.764,4.246h-3.434c-0.829,0-1.5,0.671-1.5,1.5v8.221  c0,0.828,0.671,1.5,1.5,1.5h3.435c0.423,1.475,1.013,2.895,1.764,4.244l-2.433,2.433c-0.586,0.586-0.586,1.535,0,2.121l5.813,5.813  c0.586,0.586,1.535,0.586,2.121,0l2.434-2.434c1.35,0.75,2.77,1.341,4.244,1.763v3.437c0,0.828,0.671,1.5,1.5,1.5h8.22  c0.828,0,1.5-0.672,1.5-1.5v-3.437c1.475-0.423,2.896-1.013,4.244-1.763l2.434,2.433c0.563,0.563,1.559,0.563,2.121,0l5.813-5.813  c0.586-0.586,0.586-1.535,0-2.121l-2.433-2.433c0.75-1.349,1.34-2.77,1.764-4.244h3.435c0.828,0,1.5-0.672,1.5-1.5v-8.221  C74.487,45.062,73.815,44.391,72.987,44.391z M71.487,52.611h-3.1c-0.702,0-1.312,0.487-1.464,1.174  c-0.435,1.948-1.204,3.8-2.286,5.501c-0.377,0.593-0.292,1.368,0.205,1.865l2.197,2.197l-3.691,3.691l-2.197-2.197  c-0.495-0.498-1.272-0.581-1.865-0.205c-1.703,1.082-3.554,1.852-5.502,2.285c-0.686,0.152-1.174,0.761-1.174,1.464v3.102h-5.22  v-3.102c0-0.703-0.488-1.312-1.174-1.464c-1.947-0.434-3.798-1.202-5.501-2.284c-0.591-0.376-1.367-0.292-1.865,0.205l-2.198,2.197  l-3.692-3.692l2.197-2.197c0.497-0.497,0.583-1.272,0.205-1.865c-1.083-1.703-1.852-3.554-2.285-5.501  c-0.153-0.686-0.762-1.174-1.464-1.174h-3.1v-5.221h3.1c0.703,0,1.312-0.488,1.464-1.174c0.434-1.948,1.203-3.799,2.286-5.502  c0.377-0.593,0.292-1.369-0.205-1.866l-2.196-2.196l3.69-3.69l2.196,2.196c0.498,0.498,1.272,0.583,1.865,0.205  c1.704-1.083,3.555-1.852,5.503-2.285c0.687-0.153,1.174-0.762,1.174-1.464v-3.1h5.22v3.1c0,0.703,0.488,1.312,1.174,1.464  c1.948,0.434,3.8,1.203,5.503,2.285c0.593,0.378,1.369,0.292,1.865-0.205l2.196-2.196l3.691,3.691l-2.196,2.196  c-0.497,0.497-0.582,1.272-0.205,1.865c1.082,1.703,1.852,3.554,2.285,5.502c0.152,0.686,0.761,1.174,1.464,1.174h3.1V52.611z"></path></svg>