<svg xmlns="http://www.w3.org/2000/svg" xmlns:xlink="http://www.w3.org/1999/xlink" version="1.1" x="0px" y="0px" viewBox="0 0 100 100" enable-background="new 0 0 100 100" xml:space="preserve"><path d="M38.899,51.199c-2.657,0-4.819,2.162-4.819,4.82c0,0.828,0.671,1.5,1.5,1.5s1.5-0.672,1.5-1.5  c0-1.004,0.816-1.82,1.819-1.82c0.829,0,1.5-0.672,1.5-1.5S39.728,51.199,38.899,51.199z M61.102,51.199  c-2.657,0-4.818,2.162-4.818,4.82c0,0.828,0.672,1.5,1.5,1.5s1.5-0.672,1.5-1.5c0-1.004,0.815-1.82,1.818-1.82  c0.828,0,1.5-0.672,1.5-1.5S61.93,51.199,61.102,51.199z M69.753,52.327l-2.697-8.456c-0.013-0.054-0.029-0.108-0.049-0.161  c-0.829-2.245-2.637-3.941-4.824-4.707l-0.273-0.854c-0.014-0.051-0.029-0.102-0.048-0.151c-0.759-2.049-2.737-3.426-4.922-3.426  c-2.893,0-5.246,2.354-5.246,5.246v2.268c-0.526-0.205-1.094-0.328-1.692-0.328s-1.166,0.123-1.693,0.328v-2.268  c0-2.893-2.353-5.246-5.246-5.246c-2.187,0-4.165,1.377-4.922,3.427c-0.016,0.044-0.03,0.088-0.042,0.133l-0.278,0.872  c-2.188,0.766-3.995,2.462-4.824,4.707c-0.02,0.052-0.036,0.104-0.049,0.158l-2.695,8.447c-0.49,1.138-0.763,2.389-0.763,3.704  c0,5.188,4.221,9.408,9.409,9.408c3.788,0,7.051-2.254,8.542-5.485c0.738,0.482,1.615,0.769,2.561,0.769s1.823-0.286,2.56-0.769  c1.491,3.231,4.754,5.485,8.54,5.485c5.188,0,9.408-4.221,9.408-9.408C70.51,54.709,70.239,53.462,69.753,52.327z M38.899,62.428  c-3.534,0-6.409-2.875-6.409-6.408c0-3.534,2.875-6.409,6.409-6.409s6.41,2.875,6.41,6.409  C45.309,59.553,42.433,62.428,38.899,62.428z M45.309,49.151c-1.682-1.57-3.932-2.54-6.41-2.54c-1.416,0-2.754,0.323-3.959,0.885  l0.895-2.804c0.002-0.007,0.004-0.015,0.007-0.022c0.729-1.87,2.554-3.12,4.568-3.12c2.702,0,4.899,2.198,4.899,4.9V49.151z   M45.309,40.265c-1.151-0.914-2.56-1.519-4.101-1.674c0.411-0.617,1.095-1.019,1.855-1.019c1.238,0,2.246,1.008,2.246,2.246V40.265z   M50.001,57.711c-0.934,0-1.693-0.759-1.693-1.691c0-0.934,0.759-1.693,1.693-1.693c0.933,0,1.692,0.76,1.692,1.693  C51.693,56.952,50.935,57.711,50.001,57.711z M51.693,51.654c-0.526-0.205-1.094-0.328-1.692-0.328s-1.166,0.123-1.693,0.328v-5.204  c0-0.934,0.759-1.693,1.693-1.693c0.933,0,1.692,0.76,1.692,1.693V51.654z M54.693,39.818c0-1.238,1.008-2.246,2.246-2.246  c0.761,0,1.444,0.402,1.855,1.019c-1.541,0.155-2.949,0.76-4.102,1.674V39.818z M54.693,46.451c0-2.702,2.198-4.9,4.9-4.9  c2.014,0,3.839,1.25,4.568,3.12c0.002,0.007,0.004,0.015,0.007,0.022l0.896,2.806c-1.207-0.563-2.546-0.887-3.963-0.887  c-2.477,0-4.727,0.969-6.408,2.54V46.451z M61.102,62.428c-3.533,0-6.408-2.875-6.408-6.408c0-3.534,2.875-6.409,6.408-6.409  s6.408,2.875,6.408,6.409C67.51,59.553,64.635,62.428,61.102,62.428z"></path></svg>