<svg xmlns="http://www.w3.org/2000/svg" xmlns:xlink="http://www.w3.org/1999/xlink" version="1.1" x="0px" y="0px" viewBox="0 0 100 100" enable-background="new 0 0 100 100" xml:space="preserve"><path d="M68.669,64.019H31.331c-0.828,0-1.5,0.672-1.5,1.5s0.672,1.5,1.5,1.5h37.338c0.828,0,1.5-0.672,1.5-1.5  S69.497,64.019,68.669,64.019z M32.851,58.981c0.385,0,0.768-0.146,1.061-0.439l10.957-10.956l6.691,3.19  c0.572,0.274,1.256,0.157,1.705-0.293l12.762-12.76l1.602,2.996l1.02-7.738l-7.74,1.02l2.998,1.602l-12.012,12.01l-6.691-3.19  c-0.57-0.272-1.256-0.157-1.705,0.293L31.79,56.421c-0.586,0.586-0.586,1.535,0,2.121C32.083,58.835,32.468,58.981,32.851,58.981z"></path></svg>