<svg xmlns="http://www.w3.org/2000/svg" xmlns:xlink="http://www.w3.org/1999/xlink" version="1.1" x="0px" y="0px" viewBox="0 0 100 100" enable-background="new 0 0 100 100" xml:space="preserve"><g><path d="M50,70.716c-0.38,0-0.77-0.051-1.19-0.156c-0.153-0.042-0.265-0.084-0.376-0.131l-0.128-0.047   c-0.19-0.065-0.378-0.136-0.556-0.231c-0.217-0.116-22.235-12.008-22.235-25.671c0-8.663,6.026-15.195,14.018-15.195   c3.526,0,7.555,1.787,10.467,4.558c2.913-2.771,6.941-4.558,10.468-4.558c7.991,0,14.018,6.533,14.018,15.195   c0,13.663-22.018,25.555-22.24,25.674c-0.176,0.094-0.362,0.164-0.551,0.229c-0.006,0.002-0.103,0.035-0.108,0.038   c-0.13,0.056-0.242,0.098-0.359,0.13C50.771,70.665,50.381,70.716,50,70.716z M39.533,32.284c-6.281,0-11.018,5.243-11.018,12.195   c0,9.812,15.293,20.171,20.651,23.025c0.026,0.012,0.066,0.023,0.106,0.037l0.148,0.051c0.048,0.017,0.114,0.044,0.18,0.072   c0.218,0.055,0.475,0.074,0.799-0.001c0.081-0.033,0.14-0.057,0.2-0.078l0.127-0.044c0.04-0.014,0.082-0.025,0.121-0.043   c5.345-2.849,20.638-13.207,20.638-23.02c0-6.953-4.736-12.195-11.018-12.195c-3.136,0-6.97,1.936-9.324,4.708   c-0.285,0.335-0.704,0.529-1.144,0.529l0,0c-0.44,0-0.858-0.193-1.144-0.529C46.503,34.22,42.669,32.284,39.533,32.284z"></path></g></svg>