<svg xmlns="http://www.w3.org/2000/svg" xmlns:xlink="http://www.w3.org/1999/xlink" version="1.1" x="0px" y="0px" viewBox="0 0 100 100" enable-background="new 0 0 100 100" xml:space="preserve"><g><path d="M50,70.716c-0.38,0-0.77-0.051-1.19-0.156c-0.153-0.042-0.265-0.084-0.376-0.131l-0.128-0.047   c-0.19-0.065-0.378-0.136-0.556-0.231c-0.217-0.116-22.235-12.008-22.235-25.671c0-8.663,6.026-15.195,14.018-15.195   c3.526,0,7.555,1.787,10.467,4.558c2.913-2.771,6.941-4.558,10.468-4.558c7.991,0,14.018,6.533,14.018,15.195   c0,13.663-22.018,25.555-22.24,25.674c-0.176,0.094-0.362,0.164-0.551,0.229c-0.006,0.002-0.103,0.035-0.108,0.038   c-0.13,0.056-0.242,0.098-0.359,0.13C50.771,70.665,50.381,70.716,50,70.716z"></path></g></svg>