<svg xmlns="http://www.w3.org/2000/svg" xmlns:xlink="http://www.w3.org/1999/xlink" version="1.1" x="0px" y="0px" viewBox="0 0 100 100" enable-background="new 0 0 100 100" xml:space="preserve"><path d="M74.716,50.193L51.728,28.206c-0.967-0.924-2.489-0.925-3.456,0L25.284,50.193c-0.998,0.954-1.033,2.537-0.079,3.535  c0.491,0.513,1.148,0.771,1.807,0.771c0.621,0,1.243-0.23,1.728-0.693l1.927-1.844v21.025c0,0.828,0.671,1.5,1.5,1.5h11.252  c0.829,0,1.5-0.672,1.5-1.5V62.188c0-2.802,2.279-5.081,5.081-5.081s5.081,2.279,5.081,5.081v10.801c0,0.828,0.672,1.5,1.5,1.5  h11.252c0.828,0,1.5-0.672,1.5-1.5V51.964l1.927,1.843c0.998,0.952,2.579,0.919,3.535-0.078  C75.748,52.73,75.713,51.147,74.716,50.193z"></path></svg>