<svg xmlns="http://www.w3.org/2000/svg" xmlns:xlink="http://www.w3.org/1999/xlink" version="1.1" x="0px" y="0px" viewBox="0 0 100 100" enable-background="new 0 0 100 100" xml:space="preserve"><path d="M74.024,50.916l-5.154-4.93c0,0-0.001-0.001-0.001-0.001L51.036,28.928c-0.29-0.277-0.664-0.416-1.037-0.416  s-0.747,0.139-1.037,0.416L36.876,40.489L25.975,50.916c-0.599,0.572-0.62,1.522-0.047,2.121c0.295,0.308,0.689,0.463,1.084,0.463  c0.373,0,0.746-0.138,1.037-0.416l2.618-2.504v22.408c0,0.828,0.671,1.5,1.5,1.5h11.252c0.829,0,1.5-0.672,1.5-1.5V61.188  c0-2.802,2.279-5.081,5.081-5.081s5.081,2.279,5.081,5.081v11.801c0,0.828,0.672,1.5,1.5,1.5h11.252c0.828,0,1.5-0.672,1.5-1.5  V50.58l2.618,2.504c0.598,0.572,1.547,0.551,2.121-0.047C74.644,52.438,74.623,51.488,74.024,50.916z M66.332,71.488H58.08V61.188  c0-4.456-3.625-8.081-8.081-8.081s-8.081,3.625-8.081,8.081v10.301h-8.252V47.71l16.332-15.622l11.758,11.247l4.575,4.375V71.488z"></path></svg>