<svg xmlns="http://www.w3.org/2000/svg" xmlns:xlink="http://www.w3.org/1999/xlink" version="1.1" x="0px" y="0px" viewBox="0 0 100 100" enable-background="new 0 0 100 100" xml:space="preserve"><path d="M36.506,44.839c-2.846,0-5.161,2.314-5.161,5.161c0,2.845,2.315,5.162,5.161,5.162s5.161-2.316,5.161-5.162  C41.667,47.154,39.352,44.839,36.506,44.839z M36.506,52.162c-1.191,0-2.161-0.971-2.161-2.162c0-1.192,0.97-2.161,2.161-2.161  s2.161,0.969,2.161,2.161C38.667,51.191,37.697,52.162,36.506,52.162z M69.328,42.753H49.286c-2.337-3.465-6.297-5.748-10.78-5.748  c-7.165,0-12.995,5.83-12.995,12.995c0,7.166,5.83,12.994,12.995,12.994c4.483,0,8.443-2.283,10.78-5.746h5.889  c0.397,0,0.779-0.158,1.061-0.439l2.019-2.02l2.019,2.02c0.281,0.281,0.663,0.439,1.061,0.439h1.21c0.397,0,0.779-0.158,1.061-0.439  l2.019-2.02l2.019,2.02c0.281,0.281,0.663,0.439,1.061,0.439h1.21c0.397,0,0.779-0.158,1.061-0.439l3.078-3.08  c0.281-0.281,0.439-0.662,0.439-1.061v-4.753C74.489,45.069,72.174,42.753,69.328,42.753z M48.5,50c0,0.405-0.03,0.809-0.081,1.209  c-0.01,0.088-0.026,0.176-0.04,0.264c-0.05,0.334-0.114,0.664-0.198,0.992c-0.018,0.064-0.033,0.131-0.051,0.195  c-0.224,0.801-0.545,1.576-0.963,2.305c-1.727,3-4.959,5.029-8.661,5.029c-5.511,0-9.995-4.482-9.995-9.994  c0-5.511,4.484-9.995,9.995-9.995c3.702,0,6.934,2.029,8.661,5.028c0.417,0.726,0.736,1.499,0.96,2.297  c0.021,0.071,0.037,0.144,0.056,0.216c0.082,0.32,0.145,0.645,0.195,0.971c0.014,0.093,0.031,0.185,0.042,0.278  c0.049,0.397,0.079,0.799,0.08,1.201C48.5,49.998,48.5,49.999,48.5,50z M71.489,52.047l-2.183,2.184l-2.624-2.623  c-0.562-0.562-1.559-0.562-2.121,0l-2.624,2.623l-2.623-2.623c-0.562-0.562-1.559-0.562-2.121,0l-2.64,2.641H50.78  c0.012-0.035,0.02-0.072,0.031-0.107c0.077-0.227,0.145-0.457,0.209-0.689c0.044-0.158,0.085-0.316,0.123-0.477  c0.049-0.207,0.094-0.414,0.133-0.625c0.04-0.215,0.07-0.43,0.1-0.646c0.021-0.168,0.048-0.334,0.063-0.504  c0.037-0.396,0.06-0.794,0.061-1.194c0-0.002,0-0.003,0-0.005V50c0-0.402-0.023-0.803-0.062-1.201  c-0.015-0.165-0.04-0.326-0.062-0.489c-0.03-0.223-0.061-0.445-0.103-0.666c-0.037-0.203-0.081-0.404-0.128-0.604  c-0.04-0.17-0.083-0.338-0.13-0.505c-0.062-0.222-0.127-0.442-0.199-0.659c-0.014-0.039-0.022-0.081-0.037-0.121h18.548  c1.191,0,2.161,0.969,2.161,2.161V52.047z"></path></svg>