<svg xmlns="http://www.w3.org/2000/svg" xmlns:xlink="http://www.w3.org/1999/xlink" version="1.1" x="0px" y="0px" viewBox="0 0 100 100" enable-background="new 0 0 100 100" xml:space="preserve"><path d="M53.978,67.02h-8.625c-0.828,0-1.5,0.672-1.5,1.5s0.672,1.5,1.5,1.5h8.625c0.828,0,1.5-0.672,1.5-1.5  S54.806,67.02,53.978,67.02z M49.666,25.822c-9.719,0-17.626,7.908-17.626,17.627c0,6.153,3.202,11.832,8.416,15.031v1.24  c0,3.387,2.755,6.141,6.142,6.141h6.136c3.387,0,6.142-2.754,6.142-6.141v-1.24c5.214-3.197,8.417-8.877,8.417-15.031  C67.292,33.73,59.385,25.822,49.666,25.822z M56.656,56.301c-0.481,0.262-0.781,0.768-0.781,1.316v2.104  c0,1.732-1.409,3.141-3.142,3.141h-6.136c-1.732,0-3.142-1.408-3.142-3.141v-2.105c0-0.549-0.3-1.053-0.781-1.316  c-4.709-2.568-7.635-7.492-7.635-12.85c0-8.064,6.562-14.627,14.626-14.627c8.065,0,14.626,6.563,14.626,14.627  C64.292,48.807,61.366,53.73,56.656,56.301z M52.344,71.178h-5.357c-0.828,0-1.5,0.672-1.5,1.5s0.672,1.5,1.5,1.5h5.357  c0.828,0,1.5-0.672,1.5-1.5S53.172,71.178,52.344,71.178z M56.467,38.325c-1.204-0.504-2.503-0.385-3.574,0.183  c-0.771-0.937-1.923-1.547-3.227-1.547c-1.304,0-2.456,0.61-3.226,1.546c-0.121-0.064-0.235-0.14-0.363-0.192  c-1.037-0.426-2.178-0.421-3.211,0.01c-1.034,0.432-1.838,1.241-2.264,2.278c-0.391,0.952-0.402,1.987-0.069,2.952  c0.01,0.045,0.027,0.089,0.041,0.133c0.016,0.042,0.022,0.085,0.039,0.126c0.003,0.006,0.008,0.011,0.011,0.018  c0.004,0.011,0.006,0.022,0.011,0.033l3.067,6.64c0.253,0.549,0.796,0.871,1.363,0.871c0.21,0,0.424-0.044,0.628-0.139  c0.752-0.347,1.08-1.238,0.733-1.99l-3.046-6.594c-0.121-0.293-0.123-0.616-0.002-0.91c0.121-0.295,0.35-0.525,0.646-0.649  c0.294-0.124,0.62-0.125,0.915-0.003c0.295,0.121,0.525,0.35,0.648,0.645c0,0,0,0.001,0.001,0.001  c0.039,0.092,0.086,0.18,0.141,0.262c0.027,0.039,0.06,0.071,0.089,0.107c0.032,0.039,0.061,0.08,0.097,0.116  c0.036,0.035,0.076,0.063,0.115,0.095c0.037,0.03,0.071,0.063,0.111,0.089c0.036,0.023,0.075,0.04,0.112,0.061  c0.048,0.026,0.094,0.055,0.145,0.076c0.044,0.018,0.09,0.028,0.135,0.042c0.047,0.015,0.093,0.033,0.142,0.043  c0.097,0.02,0.196,0.03,0.296,0.03h0c0.005,0,0.01-0.001,0.015-0.001c0.094-0.001,0.188-0.009,0.281-0.028  c0.08-0.016,0.155-0.042,0.229-0.07c0.018-0.006,0.036-0.009,0.053-0.016c0,0,0.001,0,0.001-0.001  c0.092-0.039,0.18-0.086,0.262-0.142c0.037-0.024,0.067-0.056,0.101-0.083c0.042-0.034,0.085-0.064,0.123-0.103  c0.035-0.036,0.063-0.076,0.095-0.115c0.03-0.037,0.062-0.07,0.088-0.11c0.025-0.038,0.043-0.079,0.064-0.119  c0.025-0.045,0.052-0.089,0.072-0.137c0.021-0.049,0.032-0.101,0.047-0.152c0.012-0.042,0.029-0.082,0.038-0.125  c0.02-0.097,0.03-0.197,0.03-0.297v0c0-0.659,0.537-1.196,1.196-1.196s1.196,0.537,1.196,1.196v0.002c0,0.1,0.011,0.198,0.03,0.295  c0.011,0.053,0.03,0.103,0.046,0.154c0.014,0.041,0.022,0.083,0.039,0.123c0.021,0.052,0.05,0.098,0.077,0.146  c0.02,0.037,0.036,0.075,0.06,0.11c0.027,0.042,0.062,0.078,0.094,0.116c0.029,0.037,0.057,0.075,0.09,0.109  c0.043,0.043,0.092,0.08,0.14,0.118c0.028,0.022,0.053,0.047,0.083,0.067c0.162,0.11,0.347,0.189,0.546,0.229  c0.201,0.041,0.403,0.039,0.598,0c0.007-0.001,0.012-0.004,0.019-0.006c0.089-0.02,0.176-0.045,0.259-0.08  c0.026-0.011,0.05-0.027,0.075-0.04c0.062-0.03,0.123-0.06,0.18-0.098c0.022-0.015,0.041-0.034,0.063-0.05  c0.057-0.042,0.112-0.083,0.162-0.133c0.021-0.021,0.038-0.048,0.059-0.071c0.044-0.049,0.088-0.096,0.125-0.151  c0.056-0.082,0.103-0.169,0.142-0.262c0.254-0.608,0.955-0.896,1.565-0.642c0.295,0.123,0.523,0.354,0.645,0.648  s0.119,0.619-0.003,0.913l-3.044,6.592c-0.348,0.752-0.02,1.644,0.732,1.99c0.204,0.095,0.417,0.139,0.628,0.139  c0.566,0,1.109-0.322,1.362-0.871l3.066-6.64c0.005-0.01,0.006-0.02,0.011-0.03c0.003-0.007,0.009-0.013,0.012-0.02  c0.02-0.046,0.025-0.095,0.043-0.141c0.013-0.039,0.027-0.077,0.036-0.117c0.334-0.965,0.322-2.001-0.068-2.955  C58.305,39.566,57.501,38.757,56.467,38.325z"></path></svg>