<svg xmlns="http://www.w3.org/2000/svg" xmlns:xlink="http://www.w3.org/1999/xlink" version="1.1" x="0px" y="0px" viewBox="0 0 100 100" enable-background="new 0 0 100 100" xml:space="preserve"><path d="M50,39.151c-5.285,0.001-9.585,4.302-9.585,9.587c0,0.828,0.672,1.5,1.5,1.5s1.5-0.672,1.5-1.5  c0-3.632,2.954-6.586,6.585-6.587c0.828,0,1.5-0.672,1.5-1.5C51.5,39.822,50.828,39.151,50,39.151z M49.999,33.28  c-8.522,0.001-15.456,6.936-15.456,15.458c0,4.1,1.814,7.137,3.416,9.818c1.423,2.383,2.652,4.441,2.652,6.973v6.268  c-0.001,1.318,0.514,2.561,1.447,3.494s2.173,1.447,3.49,1.447h8.9c2.725,0,4.94-2.217,4.94-4.939v-6.268  c0-2.533,1.229-4.59,2.652-6.975c1.602-2.68,3.417-5.719,3.416-9.818C65.458,40.216,58.523,33.281,49.999,33.28z M54.449,73.738  h-8.898c0,0,0,0-0.001,0c-0.517,0-1.003-0.203-1.37-0.568c-0.346-0.348-0.539-0.803-0.561-1.287h12.762  C56.336,72.912,55.49,73.738,54.449,73.738z M56.39,68.883H43.611v-1.854l12.778,0.002V68.883z M59.467,57.02  c-1.28,2.143-2.598,4.348-2.972,7.012l-12.989-0.002c-0.374-2.664-1.691-4.867-2.972-7.012c-1.538-2.574-2.991-5.008-2.991-8.279  c0-6.869,5.588-12.457,12.456-12.458c6.87,0.001,12.459,5.589,12.459,12.458C62.458,52.01,61.005,54.443,59.467,57.02z   M73.978,47.238C73.978,47.238,73.978,47.238,73.978,47.238l-4.372,0.002c-0.828,0-1.499,0.672-1.499,1.5s0.672,1.5,1.5,1.5  c0,0,0,0,0.001,0l4.371-0.002c0.828,0,1.499-0.672,1.499-1.5S74.806,47.238,73.978,47.238z M31.894,48.738  c0-0.828-0.672-1.5-1.5-1.5c0,0,0,0-0.001,0l-4.371,0.002c-0.828,0-1.499,0.672-1.499,1.5s0.672,1.5,1.5,1.5c0,0,0,0,0.001,0  l4.371-0.002C31.223,50.238,31.894,49.566,31.894,48.738z M50,30.633c0.828,0,1.5-0.672,1.5-1.5l0.001-4.371  c0-0.828-0.671-1.5-1.5-1.5c-0.828,0-1.5,0.671-1.5,1.499L48.5,29.132C48.5,29.961,49.171,30.633,50,30.633z M66.98,40.436  c0.255,0,0.513-0.065,0.749-0.201l3.785-2.186c0.718-0.414,0.963-1.331,0.549-2.049c-0.414-0.717-1.333-0.964-2.049-0.549  l-3.785,2.184c-0.718,0.414-0.963,1.332-0.549,2.05C65.958,40.166,66.462,40.436,66.98,40.436z M32.271,57.242l-3.785,2.186  c-0.718,0.414-0.963,1.332-0.549,2.049c0.277,0.482,0.782,0.75,1.3,0.75c0.255,0,0.513-0.064,0.749-0.201l3.785-2.186  c0.718-0.414,0.963-1.33,0.549-2.049S32.986,56.828,32.271,57.242z M59.054,33.059c0.236,0.137,0.494,0.201,0.749,0.201  c0.518,0,1.022-0.27,1.3-0.75l2.185-3.785c0.414-0.719,0.169-1.636-0.549-2.05c-0.717-0.413-1.635-0.169-2.049,0.55l-2.185,3.785  C58.091,31.727,58.336,32.645,59.054,33.059z M71.515,59.43l-3.785-2.188c-0.716-0.414-1.633-0.17-2.049,0.549  c-0.414,0.717-0.169,1.635,0.549,2.049l3.785,2.188c0.236,0.137,0.494,0.201,0.749,0.201c0.518,0,1.022-0.27,1.3-0.75  C72.478,60.762,72.232,59.844,71.515,59.43z M33.771,37.637l-3.785-2.187c-0.716-0.415-1.633-0.169-2.049,0.548  c-0.414,0.719-0.169,1.635,0.549,2.05l3.785,2.187c0.236,0.137,0.494,0.201,0.749,0.201c0.518,0,1.021-0.269,1.3-0.75  C34.733,38.969,34.488,38.051,33.771,37.637z M38.898,32.51c0.277,0.48,0.782,0.75,1.3,0.75c0.255,0,0.513-0.064,0.749-0.201  c0.718-0.414,0.963-1.332,0.549-2.049l-2.186-3.785c-0.413-0.72-1.333-0.965-2.049-0.549c-0.718,0.414-0.963,1.331-0.549,2.049  L38.898,32.51z"></path></svg>