<svg xmlns="http://www.w3.org/2000/svg" xmlns:xlink="http://www.w3.org/1999/xlink" version="1.1" x="0px" y="0px" viewBox="0 0 100 100" enable-background="new 0 0 100 100" xml:space="preserve"><path d="M44.175,31.762c-3.315,0-6.432,1.292-8.776,3.636c-4.84,4.84-4.841,12.715-0.001,17.555c2.344,2.344,5.46,3.635,8.776,3.635  s6.434-1.291,8.778-3.636c4.839-4.839,4.839-12.714,0-17.554C50.607,33.054,47.49,31.762,44.175,31.762z M50.831,50.831  c-1.778,1.777-4.143,2.757-6.657,2.757s-4.878-0.979-6.655-2.756c-3.67-3.67-3.669-9.642,0.001-13.312  c1.778-1.778,4.141-2.757,6.655-2.757s4.878,0.979,6.656,2.757C54.5,41.189,54.5,47.161,50.831,50.831z M74.049,66.171L60.699,52.82  c3.781-7.2,2.487-16.026-3.327-21.841c-3.525-3.525-8.212-5.467-13.197-5.467c-4.985,0-9.671,1.941-13.196,5.466  c-7.277,7.277-7.277,19.118,0,26.395c3.517,3.517,8.194,5.453,13.17,5.453c3.032,0,6.006-0.732,8.672-2.129l13.352,13.352  c0.281,0.281,0.663,0.439,1.061,0.439s0.779-0.158,1.061-0.439l5.756-5.757C74.635,67.706,74.635,66.757,74.049,66.171z   M67.232,70.867L54.136,57.771c-0.289-0.289-0.673-0.439-1.062-0.439c-0.268,0-0.537,0.071-0.778,0.219  c-2.45,1.489-5.267,2.276-8.147,2.276c-4.174,0-8.098-1.624-11.049-4.574c-6.107-6.107-6.107-16.045,0-22.152  c2.958-2.958,6.892-4.587,11.075-4.587c4.184,0,8.117,1.629,11.076,4.588c5.115,5.116,6.061,13.009,2.3,19.195  c-0.359,0.591-0.269,1.351,0.221,1.84l13.096,13.096L67.232,70.867z"></path></svg>