<svg xmlns="http://www.w3.org/2000/svg" xmlns:xlink="http://www.w3.org/1999/xlink" version="1.1" x="0px" y="0px" viewBox="0 0 100 100" enable-background="new 0 0 100 100" xml:space="preserve"><g><g><path d="M43.396,61.281c-4.777,0-9.268-1.86-12.646-5.238s-5.238-7.869-5.238-12.646c0-4.777,1.86-9.268,5.238-12.646    c3.377-3.378,7.869-5.239,12.646-5.239s9.269,1.86,12.646,5.239c6.973,6.973,6.973,18.319,0,25.292    C52.665,59.421,48.174,61.281,43.396,61.281z M43.396,28.513c-3.976,0-7.714,1.548-10.525,4.36    c-2.812,2.812-4.359,6.549-4.359,10.524s1.548,7.713,4.359,10.525c2.812,2.812,6.549,4.359,10.525,4.359    c3.976,0,7.714-1.548,10.525-4.359c5.803-5.803,5.803-15.246,0-21.049C51.11,30.061,47.373,28.513,43.396,28.513z"></path></g><g><path d="M72.987,74.488c-0.384,0-0.768-0.146-1.061-0.439L53.922,56.043c-0.586-0.586-0.586-1.535,0-2.121s1.535-0.586,2.121,0    l18.005,18.006c0.586,0.586,0.586,1.535,0,2.121C73.755,74.342,73.371,74.488,72.987,74.488z"></path></g></g></svg>