<svg xmlns="http://www.w3.org/2000/svg" xmlns:xlink="http://www.w3.org/1999/xlink" version="1.1" x="0px" y="0px" viewBox="0 0 100 100" enable-background="new 0 0 100 100" xml:space="preserve"><path d="M67.406,65.288l-7.865-7.864c2.201-2.672,3.525-6.092,3.525-9.815c0-8.523-6.934-15.457-15.457-15.457  c-8.522,0-15.455,6.934-15.455,15.457c0,8.522,6.933,15.457,15.455,15.457c3.722,0,7.139-1.323,9.81-3.521l7.866,7.865  c0.293,0.293,0.677,0.439,1.061,0.439s0.768-0.146,1.061-0.439C67.992,66.823,67.992,65.874,67.406,65.288z M35.154,47.608  c0-6.869,5.587-12.457,12.455-12.457c6.869,0,12.457,5.588,12.457,12.457c0,6.868-5.588,12.457-12.457,12.457  C40.741,60.065,35.154,54.477,35.154,47.608z"></path></svg>