<svg xmlns="http://www.w3.org/2000/svg" xmlns:xlink="http://www.w3.org/1999/xlink" version="1.1" x="0px" y="0px" viewBox="0 0 100 100" enable-background="new 0 0 100 100" xml:space="preserve"><path d="M67.406,65.288l-7.865-7.864c2.201-2.672,3.525-6.092,3.525-9.815c0-8.523-6.934-15.457-15.457-15.457  c-8.522,0-15.455,6.934-15.455,15.457c0,8.522,6.933,15.457,15.455,15.457c3.722,0,7.139-1.323,9.81-3.521l7.866,7.865  c0.293,0.293,0.677,0.439,1.061,0.439s0.768-0.146,1.061-0.439C67.992,66.823,67.992,65.874,67.406,65.288z M47.609,60.065  c-6.868,0-12.455-5.589-12.455-12.457c0-6.869,5.587-12.457,12.455-12.457c6.869,0,12.457,5.588,12.457,12.457  C60.066,54.477,54.479,60.065,47.609,60.065z M42.957,40.831c-0.586-0.586-1.536-0.585-2.122,0c-3.738,3.737-3.738,9.819,0,13.559  c0.293,0.293,0.677,0.439,1.061,0.439c0.384,0,0.768-0.146,1.061-0.439c0.586-0.585,0.586-1.535,0-2.121  c-2.568-2.57-2.568-6.749,0-9.316C43.542,42.367,43.542,41.417,42.957,40.831z"></path></svg>