<svg xmlns="http://www.w3.org/2000/svg" xmlns:xlink="http://www.w3.org/1999/xlink" version="1.1" x="0px" y="0px" viewBox="0 0 100 100" enable-background="new 0 0 100 100" xml:space="preserve"><path d="M50,25.514c-13.502,0-24.486,10.985-24.486,24.486c0,13.502,10.984,24.487,24.486,24.487S74.486,63.502,74.486,50  S63.502,25.514,50,25.514z M50,71.486c-11.848,0-21.486-9.64-21.486-21.487c0-11.848,9.639-21.485,21.486-21.485  S71.486,38.152,71.486,50S61.848,71.486,50,71.486z M59.135,48.5h-18.27c-0.829,0-1.5,0.671-1.5,1.5c0,0.828,0.671,1.5,1.5,1.5  h18.27c0.828,0,1.5-0.672,1.5-1.5C60.635,49.171,59.963,48.5,59.135,48.5z"></path></svg>