<svg xmlns="http://www.w3.org/2000/svg" xmlns:xlink="http://www.w3.org/1999/xlink" version="1.1" x="0px" y="0px" viewBox="0 0 100 100" enable-background="new 0 0 100 100" xml:space="preserve"><path d="M32.749,44.974c-2.776,0-5.026,2.25-5.026,5.026s2.25,5.026,5.026,5.026c2.775,0,5.027-2.25,5.027-5.026  S35.524,44.974,32.749,44.974z M49.999,44.974c-2.776,0-5.026,2.25-5.026,5.026s2.25,5.026,5.026,5.026  c2.775,0,5.027-2.25,5.027-5.026S52.774,44.974,49.999,44.974z M67.249,44.974c-2.775,0-5.025,2.25-5.025,5.026  s2.25,5.026,5.025,5.026s5.027-2.25,5.027-5.026S70.024,44.974,67.249,44.974z"></path></svg>