<svg xmlns="http://www.w3.org/2000/svg" xmlns:xlink="http://www.w3.org/1999/xlink" version="1.1" x="0px" y="0px" viewBox="0 0 100 100" enable-background="new 0 0 100 100" xml:space="preserve"><path d="M50,44.952c-2.783,0-5.047,2.265-5.047,5.049c0,2.783,2.264,5.047,5.047,5.047c2.784,0,5.049-2.264,5.049-5.047  C55.049,47.217,52.784,44.952,50,44.952z M50,52.048c-1.129,0-2.047-0.918-2.047-2.047c0-1.13,0.918-2.049,2.047-2.049  c1.13,0,2.049,0.919,2.049,2.049C52.049,51.13,51.13,52.048,50,52.048z M64.452,44.952c-2.783,0-5.048,2.265-5.048,5.049  c0,2.783,2.265,5.047,5.048,5.047s5.047-2.264,5.047-5.047C69.499,47.217,67.235,44.952,64.452,44.952z M64.452,52.048  c-1.129,0-2.048-0.918-2.048-2.047c0-1.13,0.919-2.049,2.048-2.049s2.047,0.919,2.047,2.049  C66.499,51.13,65.581,52.048,64.452,52.048z M35.55,44.952c-2.783,0-5.048,2.265-5.048,5.049c0,2.783,2.265,5.047,5.048,5.047  s5.048-2.264,5.048-5.047C40.598,47.217,38.333,44.952,35.55,44.952z M35.55,52.048c-1.129,0-2.048-0.918-2.048-2.047  c0-1.13,0.919-2.049,2.048-2.049s2.048,0.919,2.048,2.049C37.598,51.13,36.679,52.048,35.55,52.048z"></path></svg>