<svg xmlns="http://www.w3.org/2000/svg" xmlns:xlink="http://www.w3.org/1999/xlink" version="1.1" x="0px" y="0px" viewBox="0 0 100 100" enable-background="new 0 0 100 100" xml:space="preserve"><path d="M74.481,54.667c-0.003-0.055-0.008-0.108-0.017-0.163c-0.008-0.047-0.018-0.094-0.03-0.14  c-0.012-0.047-0.026-0.093-0.043-0.139c-0.019-0.051-0.041-0.099-0.064-0.147c-0.013-0.023-0.019-0.049-0.032-0.072l-7-12.388  c-0.266-0.471-0.765-0.762-1.306-0.762H55.918c-0.828,0-1.5,0.671-1.5,1.5s0.672,1.5,1.5,1.5h9.196l5.305,9.389H56.312  c-0.828,0-1.5,0.672-1.5,1.5c0,2.653-2.158,4.812-4.811,4.812c-2.654,0-4.812-2.158-4.812-4.812c0-0.828-0.671-1.5-1.5-1.5H29.582  l5.305-9.389h9.197c0.829,0,1.5-0.671,1.5-1.5s-0.671-1.5-1.5-1.5H34.011c-0.541,0-1.04,0.291-1.306,0.762l-7,12.388  c-0.014,0.024-0.021,0.051-0.033,0.075c-0.023,0.047-0.044,0.094-0.062,0.144c-0.018,0.047-0.032,0.093-0.044,0.141  c-0.012,0.046-0.022,0.092-0.03,0.139c-0.009,0.055-0.014,0.108-0.017,0.162c-0.001,0.026-0.008,0.052-0.008,0.078v13.389  c0,0.828,0.671,1.5,1.5,1.5h45.979c0.828,0,1.5-0.672,1.5-1.5V54.744C74.489,54.718,74.482,54.693,74.481,54.667z M71.489,66.633  H28.511V56.244h13.822c0.702,3.592,3.873,6.312,7.668,6.312c3.794,0,6.965-2.72,7.666-6.312h13.822V66.633z M56.94,37.8  c0.586-0.586,0.586-1.536,0-2.122l-5.873-5.871c-0.012-0.012-0.027-0.015-0.039-0.026c-0.129-0.122-0.277-0.224-0.443-0.294  c-0.018-0.008-0.035-0.01-0.052-0.017c-0.162-0.062-0.335-0.099-0.518-0.101c-0.003,0-0.005-0.002-0.008-0.002  c-0.001,0-0.002,0.001-0.003,0.001c-0.001,0-0.003-0.001-0.005-0.001c-0.435,0-0.823,0.188-1.098,0.484l-5.842,5.842  c-0.586,0.585-0.586,1.536,0,2.121c0.586,0.586,1.535,0.586,2.121,0l3.318-3.318v18.966c0,0.828,0.672,1.5,1.5,1.5  s1.5-0.672,1.5-1.5V34.481l3.32,3.319C55.405,38.385,56.354,38.386,56.94,37.8z"></path></svg>