<svg xmlns="http://www.w3.org/2000/svg" xmlns:xlink="http://www.w3.org/1999/xlink" version="1.1" x="0px" y="0px" viewBox="0 0 100 100" enable-background="new 0 0 100 100" xml:space="preserve"><path d="M67.642,33.949c-2.021-2.021-4.707-3.133-7.564-3.134c-2.857,0-5.544,1.113-7.563,3.133L31.695,54.766  c-3.294,3.295-3.294,8.654,0,11.949c1.647,1.646,3.811,2.471,5.974,2.471c2.164,0,4.327-0.824,5.975-2.471L61.388,48.97  c2.418-2.418,2.418-6.352,0.001-8.769c-2.418-2.418-6.354-2.418-8.77,0L42.13,50.691c-0.586,0.586-0.586,1.535,0,2.121  c0.293,0.293,0.677,0.439,1.061,0.439s0.768-0.146,1.061-0.439l10.489-10.49c1.247-1.247,3.278-1.249,4.527,0  c1.247,1.248,1.247,3.278-0.001,4.526L41.522,64.594c-2.124,2.125-5.58,2.127-7.706,0c-2.124-2.125-2.124-5.582,0-7.707  l20.818-20.818c2.999-2.999,7.883-3.002,10.886,0.001c1.453,1.453,2.254,3.386,2.254,5.441c0,2.057-0.801,3.989-2.254,5.443  L51.956,60.518c-0.586,0.586-0.586,1.535,0,2.121c0.293,0.293,0.677,0.439,1.061,0.439s0.768-0.146,1.061-0.439l13.564-13.563  c2.021-2.021,3.133-4.707,3.133-7.564S69.662,35.968,67.642,33.949z"></path></svg>