<svg xmlns="http://www.w3.org/2000/svg" xmlns:xlink="http://www.w3.org/1999/xlink" version="1.1" x="0px" y="0px" viewBox="0 0 100 100" enable-background="new 0 0 100 100" xml:space="preserve"><path d="M69.486,37.94l-7.426-7.426c-0.586-0.586-1.535-0.585-2.121,0l-4.34,4.338c-0.281,0.281-0.439,0.663-0.439,1.061  s0.158,0.779,0.439,1.061l7.426,7.426c0.293,0.293,0.677,0.439,1.061,0.439s0.768-0.146,1.061-0.439l4.34-4.338  c0.281-0.281,0.439-0.663,0.439-1.061S69.768,38.221,69.486,37.94z M64.086,41.217l-5.305-5.305L61,33.696L66.305,39L64.086,41.217z   M54.172,38.402c-0.586-0.585-1.535-0.585-2.121,0L32.651,57.801c-0.004,0.004-0.005,0.01-0.01,0.015  c-0.122,0.125-0.216,0.272-0.288,0.435c-0.019,0.042-0.032,0.083-0.047,0.127c-0.018,0.053-0.046,0.102-0.058,0.157l-2.138,9.564  c-0.112,0.501,0.04,1.024,0.403,1.388c0.284,0.284,0.667,0.439,1.061,0.439c0.109,0,0.219-0.012,0.327-0.036l9.562-2.139  c0.016-0.004,0.03-0.013,0.046-0.017c0.098-0.025,0.191-0.061,0.282-0.104c0.033-0.017,0.064-0.033,0.095-0.051  c0.081-0.047,0.156-0.102,0.228-0.164c0.02-0.018,0.042-0.031,0.061-0.05c0.007-0.007,0.015-0.011,0.021-0.018l19.4-19.4  c0.281-0.281,0.439-0.663,0.439-1.061s-0.158-0.779-0.439-1.061L54.172,38.402z M53.111,41.584l1.591,1.59L37.424,60.453  l-1.591-1.592L53.111,41.584z M33.554,66.446l1.027-4.595l3.566,3.567L33.554,66.446z M41.137,64.166l-1.591-1.592l17.278-17.279  l1.593,1.592L41.137,64.166z"></path></svg>