<svg xmlns="http://www.w3.org/2000/svg" xmlns:xlink="http://www.w3.org/1999/xlink" version="1.1" x="0px" y="0px" viewBox="0 0 100 100" enable-background="new 0 0 100 100" xml:space="preserve"><path d="M50,25.514c-13.502,0-24.486,10.984-24.486,24.486S36.498,74.486,50,74.486S74.486,63.502,74.486,50  S63.502,25.514,50,25.514z M60.135,51.5H51.5v8.635c0,0.828-0.672,1.5-1.5,1.5s-1.5-0.672-1.5-1.5V51.5h-8.635  c-0.829,0-1.5-0.672-1.5-1.5s0.671-1.5,1.5-1.5H48.5v-8.635c0-0.828,0.672-1.5,1.5-1.5s1.5,0.672,1.5,1.5V48.5h8.635  c0.828,0,1.5,0.672,1.5,1.5S60.963,51.5,60.135,51.5z"></path></svg>