<svg xmlns="http://www.w3.org/2000/svg" xmlns:xlink="http://www.w3.org/1999/xlink" version="1.1" x="0px" y="0px" viewBox="0 0 100 100" enable-background="new 0 0 100 100" xml:space="preserve"><path d="M60.812,28.174c-0.734-0.377-1.641-0.087-2.019,0.649c-0.379,0.737-0.088,1.641,0.649,2.02  c7.13,3.66,11.559,10.907,11.559,18.914c0,11.714-9.53,21.245-21.245,21.245c-11.714,0-21.244-9.53-21.244-21.245  c0-8.007,4.429-15.254,11.56-18.914c0.737-0.378,1.028-1.282,0.649-2.02c-0.378-0.736-1.282-1.027-2.02-0.649  c-8.136,4.176-13.189,12.446-13.189,21.583c0,13.369,10.876,24.245,24.244,24.245c13.369,0,24.245-10.876,24.245-24.245  C74.001,40.62,68.947,32.35,60.812,28.174z M49.756,51.5c0.829,0,1.5-0.672,1.5-1.5V27.013c0-0.829-0.671-1.5-1.5-1.5  s-1.5,0.671-1.5,1.5V50C48.256,50.828,48.928,51.5,49.756,51.5z"></path></svg>