<svg xmlns="http://www.w3.org/2000/svg" xmlns:xlink="http://www.w3.org/1999/xlink" version="1.1" x="0px" y="0px" viewBox="0 0 100 100" enable-background="new 0 0 100 100" xml:space="preserve"><path d="M25.515,50c0,13.502,10.984,24.487,24.486,24.487S74.487,63.503,74.487,50c0-13.502-10.984-24.486-24.486-24.486  S25.515,36.499,25.515,50z M71.487,50c0,11.849-9.639,21.487-21.486,21.487S28.515,61.849,28.515,50  c0-11.848,9.639-21.486,21.486-21.486S71.487,38.153,71.487,50z"></path><g><path d="M47.143,56.33c0.013-1.848,0.226-3.169,0.64-3.964c0.413-0.795,1.331-1.793,2.753-2.995   c1.008-0.982,1.809-1.922,2.403-2.821c0.594-0.898,0.892-1.89,0.892-2.976c0-1.253-0.339-2.226-1.018-2.917   s-1.645-1.037-2.898-1.037c-1.072,0-1.983,0.294-2.733,0.882c-0.749,0.588-1.124,1.458-1.124,2.607h-4.536l-0.059-0.116   c-0.038-2.3,0.733-4.094,2.316-5.38c1.583-1.286,3.629-1.929,6.136-1.929c2.714,0,4.83,0.691,6.349,2.074   c1.519,1.383,2.278,3.302,2.278,5.758c0,1.641-0.476,3.163-1.425,4.565c-0.95,1.402-2.149,2.685-3.597,3.848   c-0.736,0.646-1.198,1.261-1.386,1.842c-0.188,0.582-0.281,1.435-0.281,2.559H47.143z M51.931,64.317h-4.808v-4.517h4.808V64.317z"></path></g></svg>