<svg xmlns="http://www.w3.org/2000/svg" xmlns:xlink="http://www.w3.org/1999/xlink" version="1.1" x="0px" y="0px" viewBox="0 0 100 100" enable-background="new 0 0 100 100" xml:space="preserve"><path d="M73.339,33.504c0.828,0,1.5-0.671,1.5-1.5s-0.672-1.5-1.5-1.5h-9.035c-0.029,0-0.057,0.007-0.085,0.008  c-0.049,0.003-0.098,0.007-0.146,0.015c-0.022,0.004-0.048,0.002-0.07,0.007c-0.016,0.003-0.028,0.013-0.044,0.017  c-0.143,0.034-0.28,0.086-0.409,0.161c-0.021,0.012-0.037,0.025-0.057,0.038c-0.119,0.077-0.229,0.169-0.326,0.282  c-0.008,0.009-0.017,0.016-0.023,0.024c-0.004,0.005-0.009,0.008-0.013,0.013c-0.093,0.117-0.159,0.246-0.212,0.378  c-0.01,0.025-0.021,0.049-0.029,0.076c-0.05,0.146-0.075,0.295-0.079,0.446c0,0.012-0.006,0.022-0.006,0.035l0.001,9.011  c0,0.829,0.672,1.5,1.5,1.5s1.5-0.672,1.5-1.5l-0.001-5.536c3.658,3.975,5.684,9.086,5.684,14.521  c0,11.848-9.64,21.487-21.487,21.487c-2.052,0-4.081-0.289-6.031-0.857c-0.794-0.233-1.628,0.225-1.86,1.019  c-0.232,0.796,0.224,1.629,1.02,1.86c2.223,0.649,4.535,0.979,6.872,0.979c13.502,0,24.487-10.985,24.487-24.487  c0-6.163-2.263-11.976-6.393-16.496H73.339z M35.871,57.484c-0.829,0-1.5,0.672-1.5,1.5l0.001,5.73  C30.6,60.714,28.513,55.522,28.513,50c0-11.848,9.639-21.487,21.487-21.487c2.052,0,4.081,0.289,6.03,0.858  c0.793,0.233,1.629-0.224,1.86-1.02c0.232-0.795-0.224-1.628-1.019-1.86c-2.224-0.649-4.535-0.978-6.872-0.978  c-13.502,0-24.487,10.985-24.487,24.487c0,6.163,2.263,11.977,6.392,16.496h-5.068c-0.829,0-1.5,0.672-1.5,1.5s0.671,1.5,1.5,1.5  h9.035c0.829,0,1.5-0.672,1.5-1.5l-0.001-9.012C37.371,58.156,36.699,57.484,35.871,57.484z"></path></svg>