<svg xmlns="http://www.w3.org/2000/svg" xmlns:xlink="http://www.w3.org/1999/xlink" version="1.1" x="0px" y="0px" viewBox="0 0 100 100" enable-background="new 0 0 100 100" xml:space="preserve"><path d="M52.145,46.349c0,0.195,0.048,0.377,0.115,0.548c0.004,0.009,0.007,0.018,0.011,0.027c0.077,0.182,0.183,0.345,0.32,0.481  c0.001,0.001,0.001,0.002,0.002,0.003c0.002,0.002,0.004,0.002,0.006,0.004c0.065,0.064,0.131,0.128,0.207,0.179  c0.069,0.047,0.15,0.074,0.228,0.109c0.031,0.014,0.06,0.032,0.092,0.044c0.163,0.061,0.335,0.103,0.52,0.103h12.142  c0.828,0,1.5-0.671,1.5-1.5s-0.672-1.5-1.5-1.5h-8.512l10.794-10.795c0.586-0.586,0.586-1.536,0-2.121  c-0.293-0.293-0.677-0.439-1.061-0.439s-0.768,0.146-1.061,0.439L55.144,42.736l-0.002-8.535c0-0.828-0.672-1.5-1.5-1.5  c-0.829,0-1.5,0.672-1.5,1.5L52.145,46.349z M34.053,68.069l10.803-10.806l0.001,8.535c0,0.829,0.672,1.5,1.5,1.5  c0.829,0,1.5-0.672,1.5-1.5l-0.002-12.146c0-0.104-0.011-0.205-0.03-0.303c-0.014-0.069-0.053-0.128-0.076-0.193  c-0.014-0.041-0.028-0.079-0.046-0.118c-0.065-0.143-0.15-0.27-0.255-0.384c-0.017-0.02-0.022-0.044-0.041-0.062  c-0.009-0.009-0.021-0.011-0.03-0.02c-0.125-0.119-0.268-0.215-0.429-0.285c-0.016-0.007-0.03-0.021-0.046-0.026  c-0.169-0.067-0.352-0.108-0.545-0.108H34.213c-0.829,0-1.5,0.672-1.5,1.5s0.671,1.5,1.5,1.5h8.512L31.932,65.948  c-0.586,0.586-0.586,1.535,0,2.121S33.468,68.655,34.053,68.069z"></path></svg>