<svg xmlns="http://www.w3.org/2000/svg" xmlns:xlink="http://www.w3.org/1999/xlink" version="1.1" x="0px" y="0px" viewBox="0 0 100 100" enable-background="new 0 0 100 100" xml:space="preserve"><g><path d="M35.797,73.355c-0.311,0-0.62-0.097-0.882-0.286c-0.462-0.336-0.693-0.904-0.597-1.468l2.579-15.037l-10.925-10.65   c-0.409-0.398-0.556-0.995-0.38-1.538c0.177-0.543,0.646-0.939,1.211-1.021l15.099-2.194l6.752-13.682   c0.253-0.512,0.774-0.836,1.345-0.836c0.571,0,1.093,0.324,1.345,0.836l6.753,13.682l15.099,2.194   c0.564,0.082,1.034,0.478,1.211,1.021c0.176,0.543,0.029,1.139-0.38,1.538l-10.926,10.65l2.58,15.037   c0.097,0.563-0.135,1.132-0.597,1.468c-0.463,0.336-1.075,0.38-1.58,0.114L50,66.083l-13.504,7.101   C36.276,73.299,36.036,73.355,35.797,73.355z M30.243,45.888l9.314,9.079c0.354,0.345,0.515,0.841,0.432,1.328L37.79,69.113   l11.512-6.053c0.438-0.229,0.959-0.229,1.396,0l11.513,6.053l-2.199-12.818c-0.083-0.487,0.078-0.983,0.432-1.328l9.313-9.079   l-12.871-1.871c-0.488-0.071-0.911-0.378-1.129-0.82L50,31.533l-5.756,11.664c-0.219,0.442-0.641,0.75-1.129,0.82L30.243,45.888z"></path></g></svg>