<svg xmlns="http://www.w3.org/2000/svg" xmlns:xlink="http://www.w3.org/1999/xlink" version="1.1" x="0px" y="0px" viewBox="0 0 100 100" enable-background="new 0 0 100 100" xml:space="preserve"><path d="M69.113,31.923h-9.472v-4.91c0-0.829-0.672-1.5-1.5-1.5H41.858c-0.829,0-1.5,0.671-1.5,1.5v4.91h-9.471  c-0.829,0-1.5,0.671-1.5,1.5v6.41c0,0.829,0.671,1.5,1.5,1.5h1.33v31.654c0,0.828,0.671,1.5,1.5,1.5h32.566  c0.828,0,1.5-0.672,1.5-1.5V41.333h1.33c0.828,0,1.5-0.671,1.5-1.5v-6.41C70.613,32.595,69.941,31.923,69.113,31.923z   M43.358,28.513h13.283v3.41H43.358V28.513z M32.387,34.923h35.226v3.41H32.387V34.923z M64.783,71.487H35.217V41.333h5.141v20.16  c0,0.828,0.671,1.5,1.5,1.5s1.5-0.672,1.5-1.5v-20.16H48.5v20.16c0,0.828,0.671,1.5,1.5,1.5c0.828,0,1.5-0.672,1.5-1.5v-20.16h5.142  v20.16c0,0.828,0.672,1.5,1.5,1.5s1.5-0.672,1.5-1.5v-20.16h5.142V71.487z"></path></svg>