<svg xmlns="http://www.w3.org/2000/svg" xmlns:xlink="http://www.w3.org/1999/xlink" version="1.1" x="0px" y="0px" viewBox="0 0 100 100" enable-background="new 0 0 100 100" xml:space="preserve"><path d="M63.462,41.485H42.088v-1.97c0-6.017-4.896-10.912-10.913-10.912s-10.912,4.896-10.912,10.912v3.47  c0,0.828,0.672,1.5,1.5,1.5s1.5-0.672,1.5-1.5v-3.47c0-4.362,3.549-7.912,7.912-7.912s7.913,3.55,7.913,7.912v1.97h-2.549  c-0.829,0-1.5,0.672-1.5,1.5v26.912c0,0.828,0.671,1.5,1.5,1.5h26.923c0.828,0,1.5-0.672,1.5-1.5V42.985  C64.962,42.157,64.29,41.485,63.462,41.485z M61.962,68.397H38.039V44.485h23.923V68.397z M48.5,55.507v5.271  c0,0.828,0.671,1.5,1.5,1.5c0.828,0,1.5-0.672,1.5-1.5v-5.27c0.712-0.482,1.181-1.298,1.181-2.221c0-1.479-1.202-2.681-2.681-2.681  c-1.478,0-2.68,1.202-2.68,2.681C47.32,54.21,47.789,55.025,48.5,55.507z"></path></svg>