<svg xmlns="http://www.w3.org/2000/svg" xmlns:xlink="http://www.w3.org/1999/xlink" version="1.1" x="0px" y="0px" viewBox="0 0 100 100" enable-background="new 0 0 100 100" xml:space="preserve"><path d="M60.62,38.601c-0.691-5.244-5.19-9.305-10.62-9.305s-9.929,4.061-10.62,9.305c-5.245,0.691-9.305,5.19-9.305,10.62  c0,5.906,4.806,10.711,10.713,10.711h3.5c0.829,0,1.5-0.672,1.5-1.5s-0.671-1.5-1.5-1.5h-3.5c-4.253,0-7.713-3.459-7.713-7.711  c0-4.252,3.46-7.712,7.713-7.712c0.829,0,1.5-0.671,1.5-1.5c0-4.253,3.459-7.713,7.712-7.713c4.252,0,7.712,3.46,7.712,7.713  c0,0.828,0.672,1.5,1.5,1.5c4.253,0.001,7.714,3.46,7.714,7.712c0,4.252-3.461,7.711-7.715,7.711h-3.497c-0.828,0-1.5,0.672-1.5,1.5  s0.672,1.5,1.5,1.5h3.497c5.908,0,10.715-4.805,10.715-10.711C69.926,43.792,65.864,39.293,60.62,38.601z M55.774,52.155  c0.586-0.586,0.586-1.536,0-2.122l-4.707-4.705c-0.01-0.009-0.022-0.012-0.032-0.021c-0.131-0.125-0.283-0.229-0.453-0.301  c-0.015-0.006-0.029-0.008-0.044-0.014c-0.163-0.063-0.339-0.101-0.525-0.103c-0.003,0-0.005,0-0.008,0c-0.001,0-0.002,0-0.004,0  c-0.197,0-0.385,0.041-0.558,0.109c0,0-0.001,0-0.002,0.001c-0.203,0.082-0.383,0.208-0.53,0.364l-4.684,4.684  c-0.586,0.586-0.586,1.535,0,2.121c0.293,0.293,0.677,0.439,1.061,0.439s0.768-0.146,1.061-0.439l2.152-2.152v19.188  c0,0.828,0.671,1.5,1.5,1.5c0.828,0,1.5-0.672,1.5-1.5V50.004l2.152,2.151c0.293,0.293,0.677,0.439,1.061,0.439  S55.481,52.448,55.774,52.155z"></path></svg>