<svg xmlns="http://www.w3.org/2000/svg" xmlns:xlink="http://www.w3.org/1999/xlink" version="1.1" x="0px" y="0px" viewBox="0 0 100 100" enable-background="new 0 0 100 100" xml:space="preserve"><path d="M72.986,48.5c-0.827,0-1.5,0.671-1.5,1.5v21.486H28.513V50c0-0.829-0.671-1.5-1.5-1.5c-0.829,0-1.5,0.671-1.5,1.5v22.986  c0,0.828,0.671,1.5,1.5,1.5h45.975c0.828,0,1.5-0.672,1.5-1.5V50C74.486,49.171,73.814,48.5,72.986,48.5z M38.477,40.037  c0.384,0,0.768-0.146,1.061-0.439l8.963-8.963v30.86c0,0.828,0.671,1.5,1.5,1.5c0.828,0,1.5-0.672,1.5-1.5v-30.86l8.992,8.993  c0.293,0.293,0.677,0.439,1.062,0.439c0.383,0,0.768-0.146,1.061-0.439c0.586-0.585,0.586-1.535,0-2.121L51.063,25.954  c-0.141-0.14-0.308-0.25-0.492-0.327c-0.008-0.003-0.016-0.004-0.022-0.007c-0.169-0.067-0.353-0.106-0.547-0.106  s-0.378,0.04-0.548,0.106c-0.007,0.003-0.015,0.004-0.022,0.007c-0.186,0.077-0.353,0.188-0.493,0.328L37.416,37.477  c-0.586,0.586-0.586,1.536,0,2.121C37.709,39.891,38.093,40.037,38.477,40.037z"></path></svg>