<svg xmlns="http://www.w3.org/2000/svg" xmlns:xlink="http://www.w3.org/1999/xlink" version="1.1" x="0px" y="0px" viewBox="0 0 100 100" enable-background="new 0 0 100 100" xml:space="preserve"><path d="M61.333,43.375H56.02c0.317-1.883,0.43-4.708-1.081-6.795c-1.18-1.629-3.052-2.455-5.564-2.455  c-0.414,0-0.81,0.171-1.094,0.473c-0.283,0.302-0.429,0.708-0.403,1.122c0.112,1.775-0.075,5.886-1.37,7.265  c-0.257,0.274-0.515,0.391-0.862,0.391h-1.488c-0.207-0.581-0.756-1-1.408-1h-7c-0.829,0-1.5,0.671-1.5,1.5v20.5  c0,0.828,0.671,1.5,1.5,1.5h7c0.652,0,1.202-0.419,1.408-1h16.177c2.413,0,4.381-1.945,4.416-4.351l0.995-12.615  c0.003-0.04,0.005-0.079,0.005-0.118C65.75,45.356,63.769,43.375,61.333,43.375z M37.249,45.375h4v17.5h-4V45.375z M61.755,60.341  c-0.003,0.039-0.005,0.079-0.005,0.118c0,0.781-0.635,1.416-1.416,1.416H44.249v-15.5h1.396c1.173,0,2.228-0.462,3.049-1.337  c1.792-1.908,2.159-5.538,2.205-7.738c0.71,0.189,1.24,0.532,1.605,1.035c1.228,1.689,0.556,4.958,0.194,6.072  c-0.15,0.457-0.072,0.958,0.21,1.348s0.733,0.621,1.215,0.621h7.21c0.765,0,1.39,0.609,1.415,1.367L61.755,60.341z"></path></svg>