<svg xmlns="http://www.w3.org/2000/svg" xmlns:xlink="http://www.w3.org/1999/xlink" version="1.1" x="0px" y="0px" viewBox="0 0 100 100" enable-background="new 0 0 100 100" xml:space="preserve"><path d="M73.168,68.023l-21.88-37.74c-0.269-0.463-0.763-0.748-1.298-0.748s-1.029,0.285-1.298,0.748l-21.989,37.93  c-0.269,0.463-0.27,1.035-0.002,1.5c0.269,0.465,0.764,0.752,1.301,0.752h43.997c0.829,0,1.5-0.672,1.5-1.5  C73.499,68.607,73.375,68.281,73.168,68.023z M30.605,67.465L49.99,34.025l19.386,33.439H30.605z M47.635,64.738h4.711v-4.537  h-4.711V64.738z M47.635,56.75h4.711V43.02h-4.711V56.75z"></path></svg>