<svg xmlns="http://www.w3.org/2000/svg" xmlns:xlink="http://www.w3.org/1999/xlink" version="1.1" x="0px" y="0px" viewBox="0 0 100 100" enable-background="new 0 0 100 100" xml:space="preserve"><path fill="#000000" d="M50,45.668c-2.389,0-4.332,1.943-4.332,4.332s1.943,4.332,4.332,4.332s4.332-1.943,4.332-4.332  S52.389,45.668,50,45.668z M74.287,49.248C68.816,39.808,60.191,34.609,50,34.609c-10.192,0-18.817,5.198-24.286,14.639  c-0.27,0.465-0.27,1.039,0,1.504c5.469,9.44,14.094,14.64,24.286,14.64s18.817-5.199,24.287-14.64  C74.557,50.287,74.557,49.713,74.287,49.248z M50,58.432c-4.649,0-8.433-3.782-8.433-8.432s3.783-8.433,8.433-8.433  s8.433,3.783,8.433,8.433S54.649,58.432,50,58.432z"></path></svg>