<svg xmlns="http://www.w3.org/2000/svg" xmlns:xlink="http://www.w3.org/1999/xlink" version="1.1" x="0px" y="0px" viewBox="0 0 100 100" enable-background="new 0 0 100 100" xml:space="preserve"><path d="M50,25.514c-13.502,0-24.486,10.985-24.486,24.486c0,13.502,10.984,24.486,24.486,24.486S74.486,63.502,74.486,50  S63.502,25.514,50,25.514z M57.52,55.398c0.586,0.586,0.587,1.535,0,2.122c-0.585,0.585-1.535,0.585-2.121,0L50,52.121l-5.4,5.4  c-0.585,0.585-1.536,0.586-2.121,0c-0.586-0.586-0.585-1.536,0-2.121l5.4-5.4l-5.399-5.398c-0.586-0.586-0.585-1.536,0-2.122  c0.586-0.586,1.535-0.586,2.121,0L50,47.879l5.399-5.399c0.586-0.586,1.535-0.586,2.122,0c0.585,0.585,0.586,1.535,0,2.121  L52.121,50L57.52,55.398z"></path></svg>