<svg xmlns="http://www.w3.org/2000/svg" xmlns:xlink="http://www.w3.org/1999/xlink" version="1.1" x="0px" y="0px" viewBox="0 0 100 100" enable-background="new 0 0 100 100" xml:space="preserve"><path d="M50,25.514c-13.502,0-24.486,10.985-24.486,24.486c0,13.502,10.984,24.486,24.486,24.486S74.486,63.502,74.486,50  S63.502,25.514,50,25.514z M50,71.486c-11.848,0-21.486-9.641-21.486-21.487c0-11.848,9.639-21.485,21.486-21.485  c11.848,0,21.486,9.638,21.486,21.486C71.486,61.848,61.848,71.486,50,71.486z M57.521,42.479c-0.587-0.586-1.536-0.586-2.122,0  L50,47.879l-5.399-5.399c-0.586-0.586-1.535-0.586-2.121,0c-0.585,0.585-0.586,1.536,0,2.122L47.879,50l-5.4,5.4  c-0.585,0.585-0.586,1.535,0,2.121c0.585,0.586,1.536,0.585,2.121,0l5.4-5.4l5.398,5.399c0.586,0.585,1.536,0.585,2.121,0  c0.587-0.587,0.586-1.536,0-2.122L52.121,50l5.4-5.399C58.107,44.015,58.106,43.065,57.521,42.479z"></path></svg>